<?xml version="1.0" standalone="no"?>
<!DOCTYPE svg PUBLIC "-//W3C//DTD SVG 20010904//EN"
 "http://www.w3.org/TR/2001/REC-SVG-20010904/DTD/svg10.dtd">
<svg version="1.0" xmlns="http://www.w3.org/2000/svg"
 width="1024.000000pt" height="1024.000000pt" viewBox="0 0 1024.000000 1024.000000"
 preserveAspectRatio="xMidYMid meet">

<g transform="translate(0.000000,1024.000000) scale(0.100000,-0.100000)"
fill="#000000" stroke="none">
<path d="M0 5375 c0 -4722 1 -4865 18 -4865 11 0 26 -8 36 -18 14 -16 15 -32
10 -105 l-7 -86 -28 6 -29 6 0 -157 0 -156 5120 0 5120 0 0 5120 0 5120 -5120
0 -5120 0 0 -4865z m3129 2143 c15 -25 14 -29 -8 -52 -14 -15 -32 -26 -42 -26
-21 0 -52 46 -43 63 30 53 69 59 93 15z m2881 7 c28 -30 20 -54 -23 -69 -21
-8 -31 -6 -47 9 -24 22 -25 33 -4 63 20 29 45 28 74 -3z m-4118 -10 c11 -26
-2 -55 -25 -55 -7 0 -7 4 1 12 14 14 16 44 3 52 -32 20 -65 -39 -35 -61 21
-16 1 -18 -27 -3 -26 14 -24 26 7 55 34 32 61 32 76 0z m1920 8 c24 -21 23
-45 -2 -68 -16 -15 -26 -17 -48 -9 -36 13 -39 38 -8 69 30 30 34 30 58 8z
m2881 7 c-17 -7 -23 -18 -23 -40 0 -28 3 -31 28 -28 23 3 27 8 27 35 0 24 3
29 12 21 30 -24 10 -61 -39 -73 -21 -6 -30 -2 -44 19 -16 26 -16 28 6 51 13
14 31 25 39 24 10 0 8 -4 -6 -9z m-173 -76 c0 -8 -5 -12 -10 -9 -6 4 -8 11 -5
16 9 14 15 11 15 -7z m-480 -236 c0 -54 -34 -88 -89 -88 -41 0 -71 20 -71 47
0 37 107 99 148 85 7 -2 12 -21 12 -44z m677 40 c64 -27 80 -65 45 -108 -23
-28 -54 -23 -94 15 -21 19 -28 35 -26 58 l1 32 4 -32 c5 -37 44 -73 80 -73 62
0 21 88 -52 112 -16 5 -17 6 -3 7 9 1 30 -4 45 -11z m-4849 -11 c19 -23 23
-61 9 -81 -19 -25 -74 -24 -100 3 -18 18 -19 23 -8 45 22 39 78 59 99 33z
m1973 -26 c16 -16 29 -34 29 -40 0 -20 -44 -51 -72 -51 -47 0 -122 79 -103
110 3 5 31 10 61 10 48 0 60 -4 85 -29z m4617 17 c19 -19 14 -73 -8 -93 -53
-48 -113 33 -67 93 12 15 59 16 75 0z m-2938 -18 c0 -5 -4 -10 -10 -10 -5 0
-10 5 -10 10 0 6 5 10 10 10 6 0 10 -4 10 -10z m1000 -51 c0 -4 -7 -6 -15 -3
-8 4 -15 10 -15 15 0 4 7 6 15 3 8 -4 15 -10 15 -15z m1090 -9 c0 -5 -7 -10
-16 -10 -8 0 -12 5 -9 10 3 6 10 10 16 10 5 0 9 -4 9 -10z m-615 -10 c3 -5 -1
-10 -10 -10 -9 0 -13 5 -10 10 3 6 8 10 10 10 2 0 7 -4 10 -10z m-324 -67 c13
-16 12 -17 -3 -4 -10 7 -18 15 -18 17 0 8 8 3 21 -13z m1537 -79 c38 -33 56
-74 32 -74 -5 0 -10 4 -10 10 0 5 -18 26 -40 46 -66 61 -50 77 18 18z m-2685
-25 l19 -34 -24 28 c-13 15 -29 27 -36 27 -7 0 -10 5 -7 11 11 16 28 5 48 -32z
m-467 -5 c25 -15 43 -28 41 -31 -3 -2 -26 10 -53 26 -59 38 -50 41 12 5z m679
6 c10 -11 15 -23 11 -27 -4 -5 -12 0 -17 10 -12 21 -32 22 -67 1 l-27 -16 28
26 c34 31 48 32 72 6z m741 -11 c24 -16 42 -35 38 -40 -4 -6 -15 -3 -28 9 -11
11 -36 27 -53 36 -18 9 -33 19 -33 21 0 14 37 1 76 -26z m-4612 -4 c21 -32 21
-123 0 -153 -33 -47 -82 -18 -119 72 -15 34 -14 36 16 71 38 43 79 47 103 10z
m3596 21 c0 -2 -17 -16 -37 -31 l-38 -28 29 31 c26 28 46 40 46 28z m562 -19
c19 -18 26 -37 31 -86 9 -79 -6 -115 -47 -119 l-29 -4 22 28 c33 42 27 65 -8
27 -24 -27 -32 -30 -62 -24 -50 10 -53 45 -4 61 27 9 33 15 25 25 -8 10 -2 12
27 11 32 -1 39 3 41 20 5 34 -25 56 -70 52 -40 -4 -46 0 -26 20 20 20 73 14
100 -11z m2143 -36 c-12 -12 -26 19 -19 40 7 24 7 24 15 -5 5 -17 6 -32 4 -35z
m-2860 28 c14 -14 -16 -10 -50 6 l-30 14 35 -6 c19 -3 39 -10 45 -14z m1420
-11 c23 -27 26 -38 21 -71 -9 -53 -12 -57 -45 -57 -28 0 -59 26 -80 67 -18 36
-12 40 9 6 34 -57 107 -55 103 2 -3 36 -27 62 -66 71 -25 5 -34 2 -49 -16 -10
-12 -18 -19 -18 -14 0 20 36 44 66 44 24 0 39 -8 59 -32z m-4145 -12 c0 -28
-24 -41 -40 -21 -16 20 -5 45 20 45 14 0 20 -7 20 -24z m515 4 c17 -18 17 -21
1 -45 -18 -27 -36 -31 -67 -15 -23 13 -24 28 -3 58 19 27 45 28 69 2z m700 2
c12 -8 14 -172 3 -172 -5 0 -8 36 -8 81 0 74 -1 80 -19 74 -12 -3 -21 0 -25
10 -4 11 1 15 17 15 12 0 27 -4 32 -8z m1513 -42 c17 0 32 -4 32 -10 0 -15
-81 -11 -115 6 l-30 14 40 -5 c22 -3 55 -5 73 -5z m2557 -20 c20 -38 19 -60
-4 -87 -22 -26 -31 -27 -81 -13 -88 26 -88 70 1 70 26 0 51 5 55 11 5 9 -1 10
-20 5 -30 -7 -33 0 -9 26 23 26 40 22 58 -12z m-3036 -1 c31 -29 24 -60 -20
-83 -35 -19 -38 -19 -63 -3 -35 23 -34 59 2 86 35 26 53 26 81 0z m291 11 c0
-11 -80 -11 -125 0 -22 6 -9 8 48 9 45 1 77 -3 77 -9z m428 -2 c21 -21 15 -75
-10 -92 -29 -20 -52 -20 -83 0 -29 19 -31 34 -10 74 13 25 22 30 53 30 21 0
43 -5 50 -12z m220 -8 c22 -14 32 -27 32 -45 0 -18 -10 -31 -32 -46 -40 -24
-83 -19 -117 16 -24 24 -24 25 -6 45 13 14 22 17 29 10 16 -16 56 -12 56 5 0
10 -10 15 -31 15 -17 0 -28 4 -24 10 10 16 58 11 93 -10z m1876 14 c35 -13 13
-24 -48 -24 -74 0 -98 17 -34 23 24 2 48 4 55 5 6 1 18 -1 27 -4z m-5554 -29
c23 -24 23 -25 5 -45 -30 -33 -85 -21 -85 19 0 18 29 51 45 51 6 0 22 -11 35
-25z m5365 15 c7 -12 -64 -12 -110 0 -23 6 -15 8 37 9 37 0 70 -3 73 -9z m589
-19 c24 -25 26 -32 16 -50 -10 -20 -47 -41 -70 -41 -11 0 -70 49 -70 58 0 4
11 12 25 19 15 6 25 7 25 1 0 -5 5 -6 12 -2 9 6 9 9 0 12 -7 2 -12 10 -12 18
0 24 45 15 74 -15z m191 4 c29 -28 32 -51 8 -77 -20 -22 -56 -23 -88 -2 -33
22 -31 39 7 75 39 35 42 35 73 4z m-1255 5 c12 -8 12 -10 -5 -9 -11 0 -38 4
-60 8 l-40 9 45 1 c25 0 52 -4 60 -9z m1497 -4 c5 -4 8 -68 8 -142 0 -147 -4
-158 -62 -170 -52 -10 -62 17 -63 171 -1 72 -1 136 -1 144 1 10 14 12 56 9 30
-3 58 -8 62 -12z m-5777 -26 c0 -33 -14 -40 -28 -12 -12 21 -5 42 14 42 9 0
14 -11 14 -30z m2430 -6 c0 -47 -95 -69 -166 -39 -25 10 -35 20 -32 32 3 15
18 19 87 25 46 4 86 9 88 12 11 11 23 -6 23 -30z m1359 6 c6 0 11 -2 11 -4 0
-2 3 -11 6 -20 5 -13 -1 -16 -31 -16 -41 0 -70 13 -78 35 -9 21 53 38 69 19 6
-8 16 -14 23 -14z m638 24 c-3 -3 -12 -4 -19 -1 -8 3 -5 6 6 6 11 1 17 -2 13
-5z m-4697 -22 c0 -43 -97 -63 -164 -33 -57 25 -61 46 -8 39 20 -3 46 -2 57 3
11 4 41 8 68 8 38 1 47 -2 47 -17z m1650 -23 c0 -3 -9 -14 -20 -24 -20 -18
-21 -18 -47 1 -39 29 -43 52 -4 25 38 -27 66 -23 33 4 -32 28 -27 39 8 18 17
-9 30 -20 30 -24z m494 35 c24 -9 19 -40 -9 -58 -29 -19 -76 -21 -93 -4 -13
13 -16 50 -5 61 8 9 86 9 107 1z m774 -31 c3 -29 -1 -34 -34 -48 -53 -22 -66
-19 -104 20 -41 42 -34 52 40 58 92 6 95 6 98 -30z m1652 16 c0 -6 -5 -19 -10
-30 -9 -15 -22 -19 -65 -19 -68 0 -85 7 -85 34 0 13 2 25 4 27 9 9 156 -3 156
-12z m124 11 c36 13 107 14 86 0 -13 -8 -12 -10 3 -10 11 0 17 -8 17 -25 0
-25 -1 -25 -78 -25 -54 0 -84 5 -98 15 -19 14 -18 15 6 34 14 11 27 16 31 10
4 -6 15 -6 33 1z m344 -18 c6 -40 -14 -52 -88 -52 -52 0 -73 4 -91 19 -34 28
-14 43 68 51 97 10 107 9 111 -18z m200 -6 c4 -36 -10 -46 -68 -46 -51 0 -90
22 -90 50 0 20 39 28 120 26 31 -1 35 -4 38 -30z m-1032 -1 c20 -14 33 -25 28
-25 -11 0 -74 38 -74 45 0 9 9 5 46 -20z m-646 -106 c13 -5 32 -8 42 -6 40 11
32 -90 -9 -123 -15 -11 -41 -20 -61 -20 -34 0 -35 0 -17 20 10 11 21 17 25 15
5 -3 12 7 18 23 9 27 9 27 -31 23 -25 -2 -42 1 -48 10 -11 19 -2 29 27 29 29
0 32 25 4 40 -11 6 -20 16 -20 22 0 6 10 3 23 -6 12 -9 33 -21 47 -27z m-3398
19 c0 -2 4 -505 7 -1118 l6 -1115 43 -78 c48 -86 46 -104 -8 -127 -22 -9 -43
-10 -68 -4 -69 17 -66 -20 -70 987 l-3 897 28 1 28 2 -27 4 -28 4 0 138 c0 76
3 199 7 274 l6 137 39 0 c21 0 39 -1 40 -2z m98 -521 c0 -288 3 -639 7 -780 6
-231 5 -257 -10 -257 -27 0 -30 84 -23 753 3 353 6 679 6 725 0 48 4 82 10 82
7 0 10 -181 10 -523z m2145 412 c0 -126 -12 -149 -77 -149 l-38 0 0 119 0 119
38 10 c76 21 77 20 77 -99z m1668 74 c8 -55 9 -2131 1 -2190 -6 -45 -9 -50
-31 -50 -59 0 -109 142 -69 198 15 22 13 61 -4 84 -5 6 -12 107 -16 225 -6
154 -10 195 -14 145 l-5 -70 -8 85 c-10 106 -14 700 -5 668 3 -13 6 -149 7
-302 1 -154 3 -277 6 -275 2 3 7 212 9 464 3 253 9 591 12 752 l6 292 42 4
c22 2 46 4 52 5 6 1 14 -15 17 -35z m-4380 -10 c4 -21 9 -565 13 -1210 l7
-1172 -26 -12 c-14 -6 -37 -9 -51 -5 -20 5 -26 14 -31 49 -4 23 -5 563 -3
1200 3 1133 3 1159 22 1173 11 8 30 14 42 14 17 0 23 -7 27 -37z m4867 -33 l0
-69 -34 -7 c-43 -7 -103 11 -116 37 -6 10 -8 30 -4 43 11 45 41 60 127 65 l27
1 0 -70z m228 43 c16 -21 9 -103 -11 -115 -36 -23 -126 3 -147 42 -15 28 -6
51 33 78 38 27 103 25 125 -5z m646 5 c17 -67 -2 -150 -38 -156 -13 -3 -17 2
-16 20 3 38 1 50 -11 43 -32 -20 -78 21 -64 58 9 21 63 28 68 8 3 -9 5 -4 6
11 1 24 9 31 42 37 4 0 9 -9 13 -21z m179 -6 c32 -28 12 -118 -32 -142 -28
-14 -28 -15 -35 40 -6 47 -8 50 -27 39 -11 -6 -23 -8 -26 -6 -9 10 23 58 52
77 29 19 37 18 68 -8z m-5659 10 c2 -4 8 -35 11 -68 9 -75 -5 -94 -68 -94 -51
0 -120 49 -111 78 14 43 31 66 59 78 33 15 101 18 109 6z m3165 -10 c7 -12 5
-27 -6 -49 -25 -52 -38 -47 -38 13 0 44 3 54 17 54 10 0 22 -8 27 -18z m1122
8 c5 0 9 -21 8 -47 l-1 -48 -10 43 c-6 26 -15 42 -24 42 -8 0 -12 -4 -9 -10 3
-5 1 -10 -5 -10 -21 0 -5 -44 20 -57 21 -11 27 -10 38 5 8 10 11 30 8 50 -4
27 -2 33 12 30 13 -2 18 -15 20 -50 3 -41 0 -49 -24 -64 -23 -16 -29 -16 -52
-3 -33 18 -49 70 -33 105 8 17 17 24 27 20 9 -3 20 -6 25 -6z m752 -2 c31 -18
37 -28 37 -70 0 -26 -8 -45 -25 -64 -24 -25 -28 -26 -63 -16 -48 15 -71 39
-79 85 -4 27 -1 39 16 56 24 24 79 28 114 9z m783 0 c32 -11 32 -12 36 -87 1
-42 2 -106 0 -142 -3 -56 -8 -71 -32 -98 -33 -35 -56 -40 -65 -12 -8 27 -9
326 -1 340 9 14 22 14 62 -1z m-4191 -16 c-3 -3 -11 0 -18 7 -9 10 -8 11 6 5
10 -3 15 -9 12 -12z m579 -19 c3 -21 6 -123 6 -226 0 -154 -3 -195 -16 -223
-24 -50 -50 -61 -90 -39 l-33 18 -3 206 c-2 113 1 215 5 226 12 28 76 75 102
75 18 0 24 -7 29 -37z m521 17 c7 -24 -17 -73 -47 -94 -25 -18 -74 -21 -83 -6
-3 6 3 10 14 10 11 0 23 5 27 11 4 8 -1 9 -15 4 -33 -10 -71 19 -71 55 0 36 0
36 51 9 43 -21 69 -20 69 5 0 12 12 20 42 25 4 0 9 -8 13 -19z m375 -20 c0
-38 -2 -40 -31 -40 -27 0 -30 3 -23 23 7 25 33 57 46 57 4 0 8 -18 8 -40z
m286 26 c3 -8 -2 -31 -11 -50 -15 -30 -22 -36 -49 -36 -43 0 -85 42 -66 65 17
21 82 21 74 0 -4 -9 -13 -14 -22 -13 -8 2 -17 -3 -19 -9 -7 -19 27 -16 49 4
10 9 18 24 18 35 0 21 18 24 26 4z m1861 8 c29 -8 40 -54 17 -71 -19 -14 -92
-17 -110 -5 -6 4 -17 18 -24 31 -12 23 -11 23 25 19 28 -3 39 0 46 14 11 20
14 20 46 12z m-2305 -21 c39 -35 11 -98 -53 -118 -22 -7 -52 12 -43 26 3 5 -2
9 -10 9 -8 0 -17 9 -21 19 -17 55 82 105 127 64z m-2224 -46 c26 -40 27 -54 5
-79 -20 -23 -56 -23 -94 -1 -43 26 -36 71 16 101 32 19 49 14 73 -21z m683 -4
c41 -31 49 -42 49 -70 0 -33 -8 -41 -25 -24 -6 5 -21 11 -35 14 -21 4 -20 4 7
6 36 1 51 16 27 25 -8 3 -13 10 -10 15 3 5 -12 21 -34 36 -22 15 -40 29 -40
31 0 10 17 1 61 -33z m497 -70 c-3 -33 -7 -38 -30 -41 -19 -2 -30 3 -38 17
-16 32 3 61 41 61 29 0 30 -2 27 -37z m-2463 -28 l-15 -34 34 -16 c70 -33 49
-133 -22 -111 -21 7 -38 37 -47 83 -6 29 -4 32 12 27 15 -6 16 -4 6 7 -7 7
-13 20 -13 28 0 19 29 51 46 51 10 0 10 -7 -1 -35z m1973 -24 c15 -8 22 -21
22 -42 0 -48 -16 -69 -53 -69 -38 0 -57 15 -57 44 0 20 1 20 16 -2 16 -23 58
-30 69 -11 11 18 -4 57 -37 96 -23 27 -25 32 -8 17 14 -12 35 -27 48 -33z
m2540 -313 c-1 -244 -4 -332 -8 -268 -12 150 -12 630 0 630 7 0 9 -126 8 -362z
m-2265 288 c18 -33 18 -40 5 -74 -17 -46 -55 -55 -89 -21 -19 19 -21 28 -15
78 11 93 56 101 99 17z m3749 37 c32 -5 39 -11 49 -40 13 -41 6 -112 -13 -124
-38 -24 -130 9 -143 52 -10 31 1 34 40 11 41 -25 65 -20 65 15 0 18 -4 23 -14
20 -17 -7 -41 18 -56 57 -10 27 -9 28 12 22 13 -4 40 -10 60 -13z m-2342 -3
c-8 -5 -12 -10 -8 -10 3 0 14 -3 24 -7 13 -5 16 -3 11 10 -10 27 59 23 74 -4
15 -29 2 -86 -26 -115 -38 -38 -86 -33 -124 13 -34 42 -39 64 -16 83 13 10 19
10 35 -5 17 -16 20 -16 20 -2 0 9 -9 19 -20 22 -27 9 -15 25 18 25 21 0 24 -2
12 -10z m2566 -11 c22 -18 27 -72 10 -112 -12 -31 -20 -37 -45 -37 -37 0 -76
33 -96 83 -8 20 -13 37 -9 37 3 0 21 -17 41 -37 46 -48 56 -28 14 26 -29 37
-30 40 -14 51 21 12 78 6 99 -11z m-4916 -68 c1 -59 -84 -85 -116 -36 -9 14
-13 32 -9 42 5 15 9 12 20 -14 12 -27 20 -33 45 -33 30 0 31 2 28 38 -2 31 -9
40 -36 53 -18 10 -27 19 -20 21 23 8 87 -45 88 -71z m1993 42 c15 -50 2 -82
-40 -100 -40 -16 -104 -13 -128 7 -25 21 -17 60 20 97 31 31 38 34 87 31 49
-3 53 -5 61 -35z m218 27 c14 -8 19 -21 19 -53 0 -52 -8 -65 -48 -76 -40 -12
-98 3 -112 29 -15 28 -12 71 7 92 18 20 101 25 134 8z m453 -11 c32 -25 33
-55 3 -100 -31 -46 -81 -52 -126 -14 -62 53 -27 135 59 135 23 0 48 -8 64 -21z
m264 -42 c3 -54 1 -58 -23 -67 -41 -15 -106 -12 -127 7 -22 20 -23 71 -2 101
14 21 23 23 82 20 l67 -3 3 -58z m1155 51 c9 -7 20 -27 23 -45 10 -48 -29 -83
-93 -83 -60 0 -93 21 -93 58 0 40 25 70 63 75 64 8 83 7 100 -5z m242 -19 c4
-17 4 -51 0 -75 l-6 -44 -50 0 c-42 0 -55 5 -80 29 -16 16 -29 37 -29 46 0 14
4 14 26 -4 15 -12 36 -21 48 -21 16 0 11 6 -19 23 -29 16 -41 30 -43 50 l-3
27 75 0 74 0 7 -31z m209 9 c10 -39 7 -113 -6 -126 -7 -7 -30 -12 -51 -12 -31
0 -46 7 -73 34 -19 19 -34 43 -34 55 0 20 2 20 42 -9 42 -31 70 -32 32 -2 -28
22 -56 67 -47 75 3 4 34 7 69 7 56 0 62 -2 68 -22z m-5274 -37 c0 -57 -13 -64
-92 -52 -81 13 -107 51 -34 51 50 0 76 8 76 22 0 10 -83 4 -115 -8 -8 -4 -15
-1 -15 5 0 19 41 30 113 30 l67 1 0 -49z m4332 32 c40 -36 10 -103 -47 -103
-40 0 -55 16 -55 60 0 20 5 41 12 48 17 17 68 15 90 -5z m272 -35 c12 -71 7
-78 -63 -78 -87 0 -91 3 -91 65 0 62 4 64 90 62 l55 -2 9 -47z m1466 33 c18
-34 12 -80 -15 -106 -27 -28 -70 -33 -79 -10 -3 10 1 15 12 15 32 0 62 29 62
61 0 25 -4 29 -29 29 -30 0 -46 12 -34 24 15 15 73 6 83 -13z m-4153 -1049 l3
-994 -33 7 c-17 4 -35 9 -39 12 -5 2 -8 39 -9 81 -1 75 -15 199 -18 155 -2
-35 -48 -32 -57 4 -4 15 -4 372 -1 794 4 584 9 773 18 791 12 23 13 23 21 -11
5 -19 13 -77 18 -130 7 -86 8 -79 7 80 -2 197 2 212 57 207 l31 -3 2 -993z
m542 927 c0 -91 -33 -142 -98 -155 l-33 -7 7 57 c5 38 4 61 -5 71 -10 12 -1
19 54 44 36 16 66 35 66 40 0 6 2 11 4 11 2 0 5 -28 5 -61z m-2449 -82 c0 -79
-14 -92 -97 -92 l-68 0 -7 55 c-3 30 -5 57 -2 59 9 9 102 30 137 30 l37 1 0
-53z m3628 31 c12 -12 16 -116 6 -155 -4 -16 -14 -23 -31 -23 -33 0 -63 17
-63 36 0 13 2 13 22 0 31 -22 55 -20 61 4 4 15 0 20 -16 20 -45 0 -84 69 -59
106 15 23 62 30 80 12z m-729 -35 c0 -27 -1 -27 -9 -5 -11 26 -25 30 -16 5 5
-15 3 -14 -10 2 -16 20 -16 20 -11 -3 4 -19 3 -21 -9 -11 -26 21 -16 39 21 39
32 0 35 -3 34 -27z m1430 -15 c-1 -46 -16 -108 -18 -75 -1 17 -2 17 -17 3 -8
-9 -21 -16 -29 -16 -23 0 -55 34 -61 66 -8 44 15 64 77 64 l49 0 -1 -42z m199
-6 c36 -59 46 -100 33 -135 -14 -36 -49 -35 -84 1 -29 30 -39 64 -13 42 22
-18 60 -9 64 15 3 19 -34 115 -43 115 -3 0 -4 -10 -4 -22 1 -13 -6 -39 -15
-58 l-17 -35 6 35 c3 19 7 44 9 55 3 11 5 23 5 28 3 22 33 1 59 -41z m1317 1
c-15 -49 -65 -112 -65 -81 0 8 7 21 14 28 8 6 23 31 32 56 22 59 37 57 19 -3z
m-4443 -33 c6 0 8 -11 6 -25 -6 -31 0 -32 12 -2 9 21 9 21 9 -4 1 -15 -7 -37
-18 -50 -16 -20 -21 -22 -35 -9 -16 12 -16 14 -2 22 23 13 20 25 -19 71 -46
54 -46 80 1 33 20 -20 41 -36 46 -36z m1272 64 c20 -8 21 -56 1 -94 -13 -25
-21 -30 -54 -30 -21 0 -44 6 -50 14 -22 26 -9 69 28 93 35 24 49 27 75 17z
m-2011 -14 c-45 -18 -38 -101 10 -116 33 -10 41 10 23 56 -21 54 -20 63 4 20
23 -42 25 -83 6 -99 -21 -18 -86 42 -86 78 0 33 26 71 48 70 13 0 11 -3 -5 -9z
m4060 0 c-27 -11 -29 -30 -8 -70 18 -34 31 -37 57 -13 22 20 24 1 2 -21 -22
-23 -40 -20 -63 10 -34 44 -23 105 19 103 9 0 6 -4 -7 -9z m284 4 c-3 -3 -12
-4 -19 -1 -8 3 -5 6 6 6 11 1 17 -2 13 -5z m-5569 -34 c33 -24 42 -37 42 -59
0 -17 -5 -33 -11 -36 -18 -12 -58 4 -70 28 l-12 22 25 -22 c28 -26 46 -29 54
-9 9 23 -14 54 -45 61 -17 3 -31 14 -34 26 -7 26 3 24 51 -11z m2199 -42 c-3
-8 -6 -5 -6 6 -1 11 2 17 5 13 3 -3 4 -12 1 -19z m-19 -25 c-15 -2 -42 -2 -60
0 -18 2 -6 4 27 4 33 0 48 -2 33 -4z m3392 -3 c0 -5 -14 -10 -31 -10 -17 0
-28 4 -24 10 3 6 17 10 31 10 13 0 24 -4 24 -10z m1048 -9 c43 -36 18 -121
-35 -121 -63 0 -87 80 -37 119 32 26 43 26 72 2z m-3158 -3 c0 -4 -16 -8 -35
-8 -19 0 -35 5 -35 10 0 6 16 10 35 8 19 -1 35 -6 35 -10z m1415 -8 c-3 -5
-21 -9 -38 -9 l-32 2 35 7 c19 4 36 8 38 9 2 0 0 -3 -3 -9z m-1918 -25 c-15
-14 -36 -25 -45 -25 -10 0 0 11 23 25 51 31 58 31 22 0z m-2444 8 c-18 -2 -48
-2 -65 0 -18 2 -4 4 32 4 36 0 50 -2 33 -4z m2237 -117 c0 -79 -3 -97 -21
-120 -13 -17 -30 -26 -48 -26 -51 0 -59 16 -63 123 l-3 97 35 6 c19 3 42 7 50
9 50 10 50 11 50 -89z m-2190 17 c0 -79 -8 -88 -70 -86 -66 2 -97 22 -102 68
-7 60 12 73 110 74 l62 1 0 -57z m1638 29 c6 -9 12 -31 12 -49 0 -42 -39 -72
-73 -55 -21 11 -21 11 5 6 58 -12 75 80 19 112 l-26 15 25 -7 c14 -3 31 -13
38 -22z m2690 -69 c-3 -84 -4 -88 -29 -97 -14 -5 -38 -6 -53 -2 -26 6 -26 7
-26 96 l0 90 55 0 56 0 -3 -87z m457 67 c24 -27 22 -70 -5 -92 -31 -25 -55
-23 -79 8 -26 33 -27 58 -1 84 25 25 62 26 85 0z m655 -10 c0 -11 -7 -20 -15
-20 -13 0 -14 4 -5 20 6 11 13 20 15 20 3 0 5 -9 5 -20z m-5972 -2 c7 -7 12
-24 12 -38 0 -31 -17 -50 -44 -50 -19 0 -18 2 4 13 31 15 40 64 14 74 -22 8
-47 -8 -55 -38 -7 -24 -7 -24 -8 3 -1 40 49 64 77 36z m2952 -27 c0 -49 -10
-56 -52 -37 -37 16 -23 21 16 6 24 -9 26 -8 26 20 0 24 -4 30 -21 30 -11 0
-17 5 -14 10 3 6 15 10 26 10 16 0 19 -7 19 -39z m266 22 c23 -31 17 -62 -18
-83 -43 -26 -52 -25 -89 8 -28 25 -30 30 -18 49 26 43 101 57 125 26z m189 -3
c-53 -24 -70 -24 -25 0 19 11 42 19 50 19 8 0 -3 -9 -25 -19z m2109 14 c9 -3
16 -10 16 -16 0 -5 -6 -6 -12 -2 -10 6 -10 4 -2 -7 17 -21 26 -69 14 -69 -6 0
-13 8 -16 18 -3 9 -11 29 -19 44 -17 33 -11 43 19 32z m-446 -20 c33 -7 42
-42 42 -164 0 -60 4 -119 9 -132 5 -13 5 -33 0 -45 -7 -20 -15 -23 -61 -23
-85 0 -83 -5 -86 200 l-4 181 39 -6 c21 -3 48 -8 61 -11z m479 -21 c-3 -10 -5
-4 -5 12 0 17 2 24 5 18 2 -7 2 -21 0 -30z m173 27 c0 -5 -7 -10 -15 -10 -8 0
-15 5 -15 10 0 6 7 10 15 10 8 0 15 -4 15 -10z m446 -27 c-11 -11 -19 6 -11
24 8 17 8 17 12 0 3 -10 2 -21 -1 -24z m-4926 22 c0 -10 -45 -23 -55 -17 -5 3
1 9 15 13 33 9 40 10 40 4z m2938 -54 c5 -52 -53 -96 -95 -73 -11 7 -4 11 27
15 24 3 47 11 51 19 12 18 11 65 -1 71 -6 3 -5 4 2 3 7 -1 14 -17 16 -35z
m-1249 -65 c7 -8 15 -39 18 -69 5 -47 2 -58 -16 -76 -12 -12 -33 -21 -48 -20
l-28 1 30 9 c39 11 55 34 55 78 0 25 -3 32 -9 22 -6 -9 -15 -11 -27 -6 -17 7
-17 9 -2 12 14 4 34 33 26 37 -2 1 -14 7 -28 13 -23 11 -23 12 -4 12 12 1 27
-5 33 -13z m2551 -26 c-10 -18 -30 -36 -30 -26 0 19 22 56 30 51 7 -4 7 -12 0
-25z m-5539 -16 c7 -8 25 -22 41 -30 21 -11 28 -22 28 -43 0 -36 -8 -43 -34
-29 -44 22 -66 51 -66 85 0 36 10 42 31 17z m2233 -6 c3 -13 6 -62 6 -110 0
-80 -2 -88 -19 -88 -10 0 -29 9 -42 20 -20 16 -21 19 -6 20 9 0 17 -4 17 -10
0 -5 5 -10 10 -10 13 0 13 47 -1 52 -5 2 -12 24 -14 48 -4 41 -4 42 4 12 15
-59 28 -57 20 2 -4 30 -10 59 -13 65 -5 8 7 18 25 20 4 1 9 -9 13 -21z m-1707
2 c49 0 63 -22 63 -96 0 -62 -1 -64 -26 -64 -51 0 -115 23 -134 48 -41 52 -10
132 45 118 11 -3 34 -6 52 -6z m5887 -9 c43 -47 40 -168 -5 -203 -39 -32 -48
-21 -23 29 15 28 24 62 23 87 l-1 41 -9 -49 c-14 -88 -71 -136 -77 -66 -6 59
8 118 34 150 30 35 35 36 58 11z m-3136 -3 c22 -22 14 -72 -15 -100 -42 -39
-95 -68 -123 -67 -15 0 -19 3 -10 6 8 3 28 15 43 26 l28 19 -26 28 c-34 35
-29 60 15 82 41 21 71 23 88 6z m266 -4 c3 -9 6 -32 6 -51 0 -20 5 -53 12 -74
6 -22 9 -42 6 -45 -4 -3 -32 -9 -64 -13 -51 -7 -62 -6 -86 12 -39 29 -42 46
-12 59 24 11 26 15 20 60 -6 44 -5 49 16 58 38 15 95 12 102 -6z m466 -13 c0
-22 -27 -28 -117 -23 -54 3 -63 6 -63 23 0 17 8 19 90 19 82 0 90 -2 90 -19z
m2638 0 c42 -36 17 -101 -39 -101 -72 0 -79 87 -9 113 24 9 26 8 48 -12z
m-2878 -6 c0 -12 -13 -15 -59 -15 -63 0 -91 6 -91 21 0 5 34 9 75 9 60 0 75
-3 75 -15z m-2464 -16 c18 -20 18 -20 -11 -13 l-29 7 22 -31 c24 -33 27 -42
13 -42 -5 0 -13 9 -16 20 -4 11 -21 27 -38 36 -41 21 -40 21 -32 33 11 19 71
13 91 -10z m692 1 c30 -28 28 -52 -8 -78 -39 -29 -45 -28 -15 3 35 34 32 63
-7 80 -25 11 -28 14 -12 15 11 0 30 -9 42 -20z m3355 5 c38 -5 48 -10 45 -23
-2 -13 -16 -18 -60 -20 -47 -2 -61 1 -78 18 -29 29 -25 39 13 35 17 -3 54 -7
80 -10z m477 0 c11 -13 5 -15 -43 -15 -30 0 -64 3 -74 7 -16 6 -15 8 7 14 45
12 97 10 110 -6z m210 0 c0 -10 -10 -15 -30 -15 -20 0 -30 5 -30 15 0 10 10
15 30 15 20 0 30 -5 30 -15z m180 0 c0 -11 -10 -15 -37 -14 l-38 1 30 13 c39
18 45 18 45 0z m-3440 -37 c0 -98 -68 -143 -129 -87 -38 36 -21 86 37 103 18
6 22 3 23 -16 l1 -23 7 24 c6 21 28 38 54 40 4 1 7 -18 7 -41z m1435 22 c-3
-5 -32 -10 -63 -9 -41 0 -51 3 -37 9 29 12 108 12 100 0z m1433 -14 c4 -17 -2
-18 -67 -14 -73 4 -88 9 -76 28 4 7 32 10 73 8 56 -3 67 -6 70 -22z m-739 0
c7 -8 13 -29 13 -47 2 -59 -58 -78 -105 -35 -28 26 -28 45 1 79 18 21 75 23
91 3z m-1148 -38 c5 -52 -24 -88 -71 -88 -40 0 -115 43 -115 66 0 16 9 20 55
25 99 10 130 10 131 -3z m238 -23 c2 -13 -9 -30 -34 -51 l-38 -31 22 -22 c38
-38 25 -81 -25 -81 -65 0 -117 61 -61 72 30 6 47 0 47 -17 0 -8 9 -13 20 -12
24 2 26 20 5 37 -8 7 -15 18 -15 25 0 7 -22 22 -50 33 -35 15 -50 27 -50 40 0
30 9 33 94 30 71 -3 81 -5 85 -23z m1415 19 c16 -6 21 -48 10 -78 -5 -13 -16
-15 -56 -10 -39 5 -48 4 -46 -7 5 -22 -28 -11 -77 24 -51 37 -55 52 -17 65 30
12 161 15 186 6z m462 -6 c10 -11 -24 -57 -52 -70 -13 -6 -24 -17 -24 -25 0
-7 -7 -13 -15 -13 -8 0 -15 5 -15 10 0 6 -4 10 -9 10 -12 0 -91 71 -91 81 0 4
8 10 18 13 25 7 179 2 188 -6z m183 -2 c13 -16 4 -43 -26 -78 -12 -13 -12 -24
-4 -55 6 -21 11 -57 11 -80 0 -37 -3 -43 -20 -43 -11 0 -23 6 -26 14 -3 8 -16
12 -35 10 -24 -3 -31 1 -39 22 -17 43 -13 50 28 46 77 -7 85 62 13 113 -25 17
-46 36 -48 42 -8 23 128 31 146 9z m179 -30 c3 -29 -2 -44 -19 -62 -31 -33
-45 -30 -59 12 -7 20 -22 40 -36 46 -49 23 -13 49 61 45 l50 -2 3 -39z m-1998
15 c0 -24 -17 -37 -57 -46 -18 -3 -33 -11 -33 -16 0 -5 -9 -9 -20 -9 -11 0
-17 5 -15 13 3 6 -8 20 -25 29 -57 33 -37 45 78 47 64 1 72 -1 72 -18z m1417
-17 c-8 -45 -7 -45 -56 -51 -23 -3 -41 -10 -41 -15 0 -12 -50 15 -89 48 -55
46 -44 54 80 54 l112 0 -6 -36z m-4363 -8 c-7 -18 -22 -20 -44 -5 -12 8 -10 9
8 4 15 -4 24 -1 28 10 4 9 8 14 10 12 3 -2 2 -12 -2 -21z m-1256 -13 c12 -3
22 -9 22 -14 0 -15 -24 -10 -55 12 -16 12 -21 18 -10 14 11 -4 30 -10 43 -12z
m2962 -19 c11 -28 13 -123 4 -148 -7 -17 -39 -22 -48 -7 -3 5 2 8 12 7 13 -1
17 7 17 29 0 27 -3 30 -30 27 l-30 -2 25 14 c14 8 28 12 32 10 10 -7 10 47 0
63 -4 7 -19 16 -32 22 -24 9 -24 10 8 10 26 1 34 -4 42 -25z m-2451 -9 c-11
-10 -78 -13 -105 -5 -23 6 -15 8 40 9 38 1 67 -1 65 -4z m1465 -45 c25 -63 21
-98 -11 -111 -19 -7 -34 -7 -48 0 -20 11 -20 11 0 10 43 -2 53 2 57 26 3 13 2
22 -3 20 -13 -8 -24 18 -25 58 0 48 10 47 30 -3z m1706 10 c22 -22 40 -61 40
-85 0 -18 -36 -42 -75 -50 l-30 -6 33 15 c38 18 41 41 12 104 -21 45 -12 54
20 22z m-1480 -232 l0 -242 -30 29 c-29 28 -30 32 -30 121 0 51 3 95 8 97 4 3
6 -36 5 -86 -1 -50 2 -98 7 -106 6 -11 10 17 10 79 0 52 3 112 6 133 6 33 4
37 -15 37 -20 0 -21 4 -19 88 l2 87 3 -82 c2 -50 8 -83 14 -83 7 0 10 29 8 85
-4 76 -2 85 14 85 16 0 17 -18 17 -242z m-1650 108 c0 -68 -3 -131 -6 -140 -5
-12 -20 -16 -59 -16 -42 0 -57 5 -79 25 -15 14 -24 30 -20 37 5 8 10 7 18 -4
20 -27 52 -39 69 -25 23 17 8 35 -33 39 l-35 4 33 9 c29 7 52 34 52 61 0 2
-22 4 -49 4 -28 0 -53 5 -56 10 -7 12 4 14 63 10 36 -1 42 1 42 18 0 28 -19
40 -70 44 -43 3 -44 4 -15 11 17 5 44 14 60 22 17 8 42 14 58 14 l27 1 0 -124z
m2188 5 c3 -131 -8 -156 -70 -148 -67 9 -71 19 -63 146 l7 112 62 -3 61 -3 3
-104z m909 94 c5 -15 -22 -55 -38 -55 -16 0 -22 52 -8 61 21 13 39 11 46 -6z
m551 -103 l3 -113 -30 -29 c-25 -25 -37 -30 -80 -30 l-51 0 0 45 c0 42 2 45
28 46 l27 1 -25 8 c-24 8 -23 8 8 9 17 1 32 -3 32 -9 0 -5 6 -10 14 -10 15 0
26 21 26 48 0 13 -2 14 -9 4 -4 -8 -19 -12 -32 -10 -23 3 -22 4 9 18 26 12 32
20 32 47 0 17 -4 34 -9 37 -5 4 -7 -3 -4 -14 4 -16 0 -20 -19 -20 -31 0 -68
27 -68 50 0 14 11 21 53 28 96 18 92 23 95 -106z m1583 87 c10 -13 19 -37 21
-54 3 -26 0 -30 -26 -33 -45 -5 -69 5 -93 41 -31 44 -29 57 7 57 35 0 37 -6
13 -33 -14 -16 -15 -19 -3 -15 8 2 21 19 29 36 17 36 27 37 52 1z m-5758 -11
c9 -11 17 -33 17 -49 0 -25 -4 -29 -29 -29 -32 0 -72 39 -70 69 0 12 2 11 8
-4 12 -28 48 -58 60 -50 15 8 14 48 -1 63 -7 7 -23 12 -36 12 -13 0 -21 4 -17
10 9 15 46 2 68 -22z m3241 -3 c10 -53 -6 -75 -57 -75 -36 0 -46 5 -70 35
l-28 35 28 0 c15 0 46 9 68 19 53 26 52 26 59 -14z m1609 16 c14 -14 11 -59
-4 -77 -38 -45 -100 -33 -114 23 -9 39 34 78 79 69 17 -4 34 -10 39 -15z m259
-4 c13 -20 9 -74 -7 -87 -18 -15 -98 -8 -121 10 -10 9 -14 26 -12 49 3 32 7
37 38 43 45 8 92 1 102 -15z m226 7 c28 -19 29 -57 2 -84 -15 -15 -33 -20 -75
-20 -53 0 -56 1 -72 34 -21 46 -13 63 39 74 63 14 81 14 106 -4z m219 10 c24
-7 39 -50 28 -83 -12 -38 -113 -55 -147 -24 -21 19 -25 82 -6 101 13 13 87 16
125 6z m614 -13 c21 -17 22 -21 9 -50 -32 -79 -116 -72 -88 7 7 22 7 22 -18 6
-32 -21 -41 -12 -20 21 12 18 23 24 36 20 10 -3 21 -1 25 5 9 15 30 12 56 -9z
m-4926 -11 c33 -37 15 -103 -26 -93 -31 8 -32 22 -2 20 24 -2 29 2 31 25 2 17
-4 34 -17 47 -12 12 -17 21 -13 21 5 0 17 -9 27 -20z m2235 1 c29 -54 -4 -101
-70 -101 -74 0 -106 58 -54 99 36 28 109 29 124 2z m2895 8 c15 -23 -7 -78
-46 -118 -23 -23 -46 -40 -53 -38 -6 2 -12 34 -14 80 l-3 76 28 4 c54 8 82 7
88 -4z m-5208 -31 c-3 -8 -6 -5 -6 6 -1 11 2 17 5 13 3 -3 4 -12 1 -19z m2743
-73 c-9 -10 -32 -15 -76 -15 -89 0 -91 18 -2 23 40 1 77 4 82 5 5 1 3 -5 -4
-13z m-1000 -45 c0 -5 -7 -7 -15 -4 -8 4 -15 8 -15 10 0 2 7 4 15 4 8 0 15 -4
15 -10z m30 -13 c0 -13 -7 -32 -16 -43 -15 -19 -16 -19 -8 1 4 11 7 30 7 43
-1 12 3 22 8 22 5 0 9 -10 9 -23z m-2955 -19 c21 -24 25 -38 21 -61 -3 -16 -6
-38 -6 -48 0 -28 -33 -24 -64 8 -25 25 -25 27 -10 45 10 10 22 18 28 18 6 0 3
-7 -6 -14 -10 -7 -18 -18 -18 -24 0 -12 48 -48 54 -41 2 2 7 23 11 47 6 39 4
45 -25 72 -18 17 -28 30 -22 30 6 0 22 -14 37 -32z m3901 22 c25 0 44 -31 44
-75 0 -35 -5 -48 -26 -64 -36 -28 -57 -26 -98 10 -49 42 -53 62 -20 105 24 31
32 35 57 30 16 -3 35 -6 43 -6z m1914 -10 c0 -11 -3 -20 -8 -20 -4 0 -13 9
-20 20 -11 18 -10 20 8 20 13 0 20 -7 20 -20z m346 12 c15 -10 44 -67 44 -87
0 -9 -7 -29 -15 -45 -29 -56 -108 -30 -122 39 -6 31 -4 34 13 27 37 -15 54
-15 54 0 0 12 -32 20 -62 15 -5 0 -8 8 -8 19 0 25 71 49 96 32z m-2456 -21
c15 -29 12 -83 -6 -109 -34 -49 -134 -10 -134 52 0 57 114 104 140 57z m2081
-10 c50 -50 34 -131 -26 -131 -33 0 -76 18 -91 38 -17 22 -18 109 -1 115 6 3
29 6 50 6 30 1 45 -6 68 -28z m227 -4 c18 -50 15 -81 -12 -106 -43 -41 -122
-5 -132 61 -9 51 20 78 84 78 45 0 49 -2 60 -33z m373 16 c-5 -10 -21 -33 -35
-52 -35 -46 -33 -65 7 -76 26 -8 33 -16 35 -41 3 -27 -2 -33 -31 -48 -19 -9
-46 -16 -59 -16 l-23 1 24 20 c13 11 30 18 37 15 17 -6 38 20 30 39 -3 8 -18
15 -34 15 -66 0 -68 48 -5 112 48 49 71 62 54 31z m-3163 -37 c23 -22 32 -38
30 -56 -3 -24 -6 -25 -76 -28 -70 -3 -72 -2 -82 23 -7 18 -7 33 0 46 12 22 14
23 43 8 21 -12 21 -12 4 14 -23 35 -22 37 16 30 17 -3 47 -20 65 -37z m246 13
c31 -37 34 -84 7 -99 -62 -33 -138 5 -127 64 13 67 77 86 120 35z m1364 25
c24 -5 34 -14 41 -38 11 -34 14 -155 5 -198 -5 -26 -9 -28 -59 -28 -33 0 -57
5 -64 14 -8 9 -12 47 -10 105 3 134 5 141 50 150 4 0 20 -2 37 -5z m290 -236
l-3 -243 -62 0 c-35 0 -63 3 -63 8 0 4 0 113 0 242 l0 235 65 0 65 0 -2 -242z
m248 196 c11 -77 -15 -104 -104 -104 -33 0 -72 37 -72 67 0 22 3 23 43 17 32
-4 38 -3 25 5 -9 6 -28 12 -42 13 -30 3 -32 10 -10 32 11 12 35 16 84 16 l69
0 7 -46z m204 36 c26 -14 44 -73 31 -99 -13 -23 -73 -45 -105 -37 -34 8 -76
45 -76 66 0 16 4 17 32 9 40 -11 48 -11 48 -1 0 4 -16 14 -35 21 -24 8 -35 19
-35 32 0 17 7 19 61 19 33 0 69 -4 79 -10z m-3588 -39 c18 -37 12 -68 -16 -86
-14 -8 -22 -4 -42 18 -29 34 -30 47 -3 81 26 33 39 30 61 -13z m4617 -7 c26
-33 26 -46 4 -66 -32 -28 -60 -31 -83 -8 -22 22 -21 59 2 87 17 21 55 15 77
-13z m-5355 -6 c14 -23 -4 -72 -27 -76 -10 -2 -24 2 -32 8 -15 13 -21 71 -8
84 12 12 55 2 67 -16z m1721 -10 c-4 -18 -14 -41 -23 -50 -16 -20 -57 -24 -67
-8 -4 6 7 10 25 10 28 0 34 5 47 40 19 48 27 52 18 8z m-42 5 c-7 -2 -21 -2
-30 0 -10 3 -4 5 12 5 17 0 24 -2 18 -5z m-2933 -24 c0 -6 -4 -7 -10 -4 -5 3
-10 11 -10 16 0 6 5 7 10 4 6 -3 10 -11 10 -16z m514 -40 c28 -13 42 -55 30
-91 -9 -32 -22 -38 -78 -38 -61 0 -86 20 -86 67 0 55 73 89 134 62z m2226 -57
c0 -42 -5 -75 -14 -87 -13 -18 -17 -18 -56 -5 -60 20 -70 33 -70 95 0 60 1 60
98 64 l42 1 0 -68z m1438 16 c7 -7 12 -25 12 -40 0 -21 -6 -29 -26 -34 -14 -4
-36 -2 -50 5 -35 16 -31 45 11 69 26 15 38 15 53 0z m315 -145 c2 -62 0 -113
-5 -113 -4 0 -7 57 -7 128 2 149 6 143 12 -15z m-4473 107 c0 -5 -16 -10 -35
-10 -19 0 -35 -3 -35 -7 0 -17 16 -30 43 -37 15 -3 27 -11 27 -16 0 -11 -62 9
-72 24 -13 20 -8 44 10 49 32 9 62 7 62 -3z m1938 -30 c26 -39 31 -120 8 -139
-16 -13 -56 1 -56 19 0 5 -7 16 -16 24 -14 14 -14 16 0 16 8 0 20 -9 26 -20
15 -28 38 -25 46 5 9 35 -2 68 -33 106 -15 18 -21 30 -13 27 8 -2 25 -19 38
-38z m1277 18 c18 -16 25 -32 25 -59 0 -36 -2 -39 -36 -45 -20 -4 -53 -1 -75
5 -35 11 -39 15 -39 45 0 65 75 97 125 54z m-1986 -19 c-8 -5 -27 -8 -44 -8
-30 2 -30 2 5 9 19 4 31 8 25 9 -5 1 -3 6 5 11 10 6 16 6 19 -1 2 -6 -3 -15
-10 -20z m2441 23 c0 -5 -18 -9 -40 -8 -22 0 -40 4 -40 8 0 5 18 8 40 8 22 0
40 -4 40 -8z m1563 -12 c3 -13 0 -20 -9 -20 -8 0 -14 9 -14 20 0 11 4 20 9 20
5 0 11 -9 14 -20z m-1796 4 c-3 -3 -12 -4 -19 -1 -8 3 -5 6 6 6 11 1 17 -2 13
-5z m2118 -14 c-3 -5 -23 -9 -43 -9 l-37 2 35 7 c52 11 52 11 45 0z m-2611
-25 c9 -34 -5 -56 -15 -26 -5 12 -23 28 -41 36 l-33 14 41 1 c37 0 43 -3 48
-25z m497 -15 c22 -22 39 -43 39 -48 -1 -29 -46 -52 -104 -52 -40 0 -46 3 -46
20 0 43 44 120 68 120 2 0 22 -18 43 -40z m-1261 -107 c0 -64 -3 -113 -7 -109
-4 4 -13 53 -19 109 -12 100 -10 116 19 117 4 0 7 -52 7 -117z m1490 88 c0 -5
3 -18 6 -28 5 -17 5 -17 -6 0 -16 24 -39 21 -52 -8 -8 -19 -8 -28 2 -40 18
-22 39 -19 50 8 5 13 9 16 9 7 1 -21 -19 -40 -41 -40 -27 0 -52 44 -39 69 17
32 71 56 71 32z m2922 -28 c24 -21 23 -64 -3 -97 -41 -52 -96 -17 -86 55 8 59
49 78 89 42z m-1724 -34 c7 -13 11 -42 10 -64 -4 -52 -39 -73 -93 -55 -41 13
-55 35 -55 82 0 44 11 59 51 67 43 10 71 0 87 -30z m-4367 13 c30 -25 32 -107
4 -128 -38 -28 -134 -8 -149 31 -12 32 -6 71 14 93 27 28 98 30 131 4z m327
-29 c-3 -49 -22 -68 -31 -32 -9 32 3 79 20 79 11 0 13 -11 11 -47z m2115 -10
c1 -47 -16 -73 -47 -72 -21 0 -21 0 2 9 17 7 22 17 22 44 0 26 -6 38 -22 48
l-23 12 25 6 c33 9 41 1 43 -47z m297 33 c0 -29 -9 -32 -102 -42 -57 -5 -68
-4 -68 9 0 11 18 16 70 21 40 4 76 13 83 21 16 19 17 19 17 -9z m914 8 c3 -9
6 -22 6 -30 0 -17 -54 -46 -73 -38 -18 6 -29 42 -16 50 5 3 9 1 9 -5 0 -6 10
-15 21 -22 21 -11 22 -9 16 19 -3 16 -3 32 0 36 12 11 31 6 37 -10z m2230 -6
c51 -72 -44 -137 -97 -67 -23 31 -17 61 16 77 36 17 65 14 81 -10z m-5150 -9
c8 -12 12 -29 8 -38 -5 -12 -8 -8 -12 14 -3 20 -13 31 -30 36 -23 6 -23 7 -3
8 12 1 29 -9 37 -20z m-1238 -65 c-3 -8 -16 -14 -29 -14 -28 0 -62 33 -52 50
5 8 11 4 19 -12 14 -28 44 -35 53 -12 4 11 -2 23 -17 34 l-24 18 25 4 c20 2
25 -2 27 -25 2 -16 1 -35 -2 -43z m2728 32 c11 -68 0 -94 -41 -102 -47 -9 -81
9 -99 51 -15 36 -18 77 -7 88 3 4 37 7 74 7 l67 0 6 -44z m2516 19 c0 -16 -6
-25 -15 -25 -9 0 -15 9 -15 25 0 16 6 25 15 25 9 0 15 -9 15 -25z m-4034 -41
c13 -3 24 -10 24 -16 0 -13 -41 1 -63 21 -12 11 -15 24 -11 36 7 17 9 16 17
-8 5 -16 18 -29 33 -33z m474 36 c0 -11 -4 -20 -10 -20 -5 0 -10 9 -10 20 0
11 5 20 10 20 6 0 10 -9 10 -20z m202 -25 c9 -20 9 -20 -6 -1 -9 11 -16 27
-15 35 0 14 1 14 6 1 3 -8 10 -24 15 -35z m242 29 c3 -8 2 -12 -4 -9 -6 3 -10
10 -10 16 0 14 7 11 14 -7z m4033 -6 c-3 -8 -6 -5 -6 6 -1 11 2 17 5 13 3 -3
4 -12 1 -19z m-4667 -3 c0 -8 -4 -15 -10 -15 -5 0 -10 7 -10 15 0 8 5 15 10
15 6 0 10 -7 10 -15z m4018 -3 c2 -7 -2 -10 -12 -6 -9 3 -16 11 -16 16 0 13
23 5 28 -10z m32 8 c0 -5 -4 -10 -10 -10 -5 0 -10 5 -10 10 0 6 5 10 10 10 6
0 10 -4 10 -10z m190 -5 c0 -8 -7 -15 -15 -15 -8 0 -15 7 -15 15 0 8 7 15 15
15 8 0 15 -7 15 -15z m230 5 c0 -5 -4 -10 -10 -10 -5 0 -10 5 -10 10 0 6 5 10
10 10 6 0 10 -4 10 -10z m-3811 -74 c-2 -2 -13 8 -23 22 l-19 27 24 -22 c12
-12 21 -24 18 -27z m-234 4 c10 -11 16 -20 13 -20 -3 0 -13 9 -23 20 -10 11
-16 20 -13 20 3 0 13 -9 23 -20z m1555 -15 c-7 -8 -24 -15 -39 -14 -24 0 -23
1 9 13 19 8 37 14 39 15 2 0 -2 -6 -9 -14z m-1813 -92 c-2 -16 -4 -3 -4 27 0
30 2 43 4 28 2 -16 2 -40 0 -55z m329 1 c8 -30 -19 -74 -46 -74 -23 0 -50 36
-50 66 0 12 11 29 26 39 17 11 24 22 20 33 -3 9 5 4 19 -11 14 -15 28 -39 31
-53z m1234 46 c10 -25 10 -37 -2 -68 -11 -31 -19 -38 -46 -40 -23 -2 -38 3
-57 22 -32 32 -31 38 6 81 41 46 81 48 99 5z m930 -12 c26 -29 26 -63 -2 -82
-29 -20 -47 -20 -70 1 -26 23 -22 48 13 77 17 14 32 26 34 26 2 0 13 -10 25
-22z m1083 16 c3 -3 3 -12 0 -20 -4 -11 -9 -12 -19 -3 -8 6 -14 15 -14 20 0
10 24 12 33 3z m-4011 -21 c29 -26 21 -83 -13 -83 -22 0 -59 34 -59 54 0 17
27 46 42 46 6 0 20 -7 30 -17z m955 -103 c3 -143 -14 -129 -25 20 -7 88 -6
100 8 98 12 -3 15 -24 17 -118z m1248 103 c61 -29 39 -85 -32 -82 -26 1 -25 2
10 12 28 8 37 16 37 33 0 21 -17 34 -44 34 -7 0 -17 -12 -23 -27 l-11 -28 -1
31 c-2 49 9 53 64 27z m-2597 -130 c-2 -90 -7 -138 -14 -140 -20 -7 -25 44
-18 163 5 87 10 114 21 114 11 0 13 -26 11 -137z m4948 106 c15 -30 15 -33 -4
-52 -37 -36 -94 1 -75 50 5 13 35 31 55 32 4 1 15 -13 24 -30z m-5777 -1 c11
-29 4 -46 -22 -60 -17 -9 -24 -6 -44 16 -13 15 -20 32 -16 38 4 7 9 3 14 -10
6 -15 17 -22 34 -22 20 0 25 5 25 24 0 19 -6 26 -27 29 l-28 4 28 2 c20 1 30
-5 36 -21z m5043 -155 l2 -168 3 168 3 167 25 0 c13 0 26 -3 28 -7 3 -5 6 -93
8 -198 l4 -190 -49 -3 c-83 -5 -86 1 -86 208 0 97 3 180 7 183 3 4 17 7 30 7
l23 0 2 -167z m1318 147 c11 -11 20 -24 20 -30 0 -19 -40 -50 -62 -49 -16 0
-18 2 -8 6 21 8 30 24 30 51 0 19 -5 23 -22 20 -18 -2 -24 -11 -28 -38 -3 -24
-8 -31 -14 -22 -13 21 2 62 27 72 32 13 35 12 57 -10z m-3630 -157 c0 -78 -4
-153 -9 -166 -24 -62 -88 -85 -128 -47 -46 42 -37 91 20 115 31 13 32 13 38
-13 5 -22 7 -19 8 15 1 39 -2 45 -39 68 l-40 25 0 68 c0 37 4 72 8 79 9 15
124 22 134 8 4 -5 8 -74 8 -152z m-2205 113 c7 -47 0 -86 -19 -98 -19 -13 -86
-9 -116 7 -32 17 -45 44 -34 78 14 46 33 57 100 57 l63 0 6 -44z m4339 28 c11
-28 6 -100 -8 -119 -20 -28 -83 -26 -107 4 -25 31 -26 106 -1 120 28 17 109
14 116 -5z m-2737 -36 c-3 -8 -6 -5 -6 6 -1 11 2 17 5 13 3 -3 4 -12 1 -19z
m797 -2 c24 -10 37 -24 44 -48 6 -18 13 -127 16 -243 4 -115 9 -247 12 -291 7
-99 2 -119 -37 -133 -26 -9 -33 -7 -64 20 l-35 31 0 339 c0 375 -4 354 64 325z
m-775 -69 c1 -5 -3 -5 -9 -2 -5 3 -10 16 -9 28 0 21 1 21 9 2 5 -11 9 -24 9
-28z m3088 13 c14 -11 34 -20 44 -20 11 0 19 -4 19 -10 0 -20 -41 -9 -72 20
-37 33 -30 41 9 10z m-5254 -27 c-7 -2 -21 -2 -30 0 -10 3 -4 5 12 5 17 0 24
-2 18 -5z m1284 -50 c9 -13 11 -28 7 -35 -5 -7 -7 -21 -6 -30 3 -16 -6 -18
-78 -18 -61 0 -81 3 -78 13 3 6 15 13 29 15 127 13 137 23 81 78 l-37 37 34
-19 c18 -10 40 -29 48 -41z m1936 40 c-13 -8 -23 -22 -23 -29 0 -8 -7 -14 -15
-14 -21 0 -85 32 -85 42 0 5 4 7 8 4 5 -3 30 -1 58 3 74 13 82 12 57 -6z m932
-13 c-9 -16 -20 -30 -26 -30 -11 0 -4 15 19 43 22 25 25 21 7 -13z m-2646 -14
c24 -25 32 -41 29 -62 -3 -29 -4 -29 -79 -32 -59 -2 -79 1 -89 13 -11 13 -7
15 33 15 67 0 107 10 107 28 0 22 -30 52 -52 52 -10 0 -18 5 -18 10 0 21 38 8
69 -24z m425 4 c44 -30 56 -47 56 -81 0 -24 -39 -34 -91 -23 -52 11 -51 27 1
35 77 11 75 44 -5 80 -22 10 -32 19 -22 19 10 0 38 -13 61 -30z m1515 26 c-10
-9 -79 -14 -74 -5 4 5 22 9 42 9 20 0 34 -2 32 -4z m2306 -27 c70 -62 70 -99
0 -99 -50 0 -77 8 -69 21 3 5 16 9 29 9 59 0 64 54 7 84 -15 9 -22 15 -15 16
7 0 28 -14 48 -31z m641 -11 c23 -43 16 -148 -12 -185 -25 -34 -59 -41 -85
-17 -27 24 -24 59 11 116 33 53 40 98 15 98 -8 0 -15 5 -15 10 0 6 16 10 35
10 29 0 37 -5 51 -32z m-6378 -54 c4 -39 -30 -74 -56 -58 -23 15 -26 36 -7 59
16 20 16 19 6 -2 -16 -32 -13 -43 9 -43 18 0 40 27 40 50 0 6 -10 15 -22 20
-23 10 -23 10 2 7 20 -2 26 -8 28 -33z m3216 16 c17 -6 26 -17 26 -31 0 -21
-3 -22 -72 -15 -40 4 -77 11 -82 16 -6 6 4 7 26 4 28 -5 40 -2 54 14 23 25 18
24 48 12z m216 -4 c46 6 50 5 50 -14 0 -38 -109 -46 -134 -10 -19 27 -11 41
15 28 11 -6 40 -8 69 -4z m1427 -8 c7 -6 18 -27 24 -48 17 -58 -4 -94 -57 -98
-68 -5 -114 51 -97 118 11 42 92 60 130 28z m-4368 -3 c33 -16 43 -45 33 -94
-10 -44 -29 -55 -83 -47 -86 14 -107 61 -53 125 29 35 59 39 103 16z m3701 -5
c0 -18 -7 -20 -80 -20 -111 0 -108 23 5 33 22 2 48 4 58 5 11 1 17 -5 17 -18z
m-3145 -15 c0 -18 -6 -20 -70 -17 -38 2 -72 6 -74 8 -2 2 -1 10 3 19 5 13 19
15 73 13 60 -3 68 -5 68 -23z m2645 10 c0 -21 -47 -37 -82 -30 -46 11 -34 33
20 38 26 2 50 4 55 5 4 1 7 -5 7 -13z m225 -29 c22 -58 17 -75 -27 -98 l-38
-20 -42 24 c-57 31 -60 58 -15 103 27 27 43 35 70 35 33 0 37 -4 52 -44z
m1424 35 c8 -5 11 -16 7 -26 -5 -15 -16 -16 -79 -10 -39 4 -73 8 -75 10 -1 1
0 10 4 19 5 12 20 16 68 16 33 0 67 -4 75 -9z m225 -1 c14 -5 26 -17 26 -25 0
-14 -11 -16 -70 -13 -73 3 -89 15 -49 35 29 15 59 16 93 3z m1040 -6 c3 -9 6
-76 6 -149 l0 -134 -32 -24 c-56 -42 -79 -51 -89 -36 -10 16 -12 342 -2 352 3
4 30 7 59 7 38 0 53 -4 58 -16z m-4884 -9 c0 -11 -12 -15 -46 -15 -40 0 -45 2
-34 15 7 8 28 15 46 15 24 0 34 -5 34 -15z m4261 3 c1 -7 1 -19 0 -25 -1 -7 6
-24 15 -38 16 -25 16 -27 -12 -58 -16 -18 -32 -36 -36 -41 -4 -5 -26 8 -49 28
-23 20 -47 36 -52 36 -4 0 -7 8 -5 18 2 12 19 20 62 27 64 11 89 35 37 35 -31
0 -50 15 -29 23 25 10 68 7 69 -5z m179 -3 c0 -10 -10 -15 -32 -15 -31 1 -32
1 -14 15 25 19 46 19 46 0z m-5106 -60 c7 -28 -1 -40 -47 -70 -19 -12 -31 -15
-35 -8 -4 6 -21 17 -38 26 -39 20 -58 43 -50 62 4 12 23 15 85 15 76 0 79 -1
85 -25z m240 9 c11 -30 6 -42 -25 -54 -25 -11 -29 -17 -25 -37 8 -31 -9 -30
-66 6 -51 33 -79 67 -71 87 8 22 179 20 187 -2z m205 5 c40 -14 39 -29 -5 -73
l-36 -36 -47 24 c-58 30 -75 49 -66 76 5 17 15 20 64 20 32 0 72 -5 90 -11z
m236 -9 c3 -11 4 -29 0 -39 -6 -21 -55 -57 -55 -41 0 5 -7 10 -15 10 -10 0
-15 -10 -15 -34 0 -36 10 -48 45 -53 22 -4 45 -29 45 -50 0 -7 -8 -21 -19 -32
-15 -15 -29 -17 -72 -13 -30 2 -58 8 -62 12 -5 4 -7 31 -5 61 l3 54 23 -25 22
-24 0 26 c0 33 -19 88 -37 110 -11 13 -12 21 -3 37 9 18 20 21 75 21 55 0 65
-3 70 -20z m213 -13 c5 -38 -14 -57 -56 -57 -41 0 -72 24 -72 55 0 32 9 36 70
33 52 -3 55 -4 58 -31z m1310 -3 c4 -45 -35 -74 -98 -74 -42 0 -52 4 -74 31
-52 61 -30 81 84 77 l85 -3 3 -31z m230 -1 c5 -31 -31 -63 -72 -63 -41 0 -100
38 -104 67 -4 26 9 29 102 23 64 -4 71 -7 74 -27z m212 4 c0 -28 -38 -67 -65
-67 -12 0 -40 14 -63 32 -53 41 -42 56 41 60 77 4 87 1 87 -25z m494 -15 c-9
-55 -19 -62 -88 -62 -59 1 -62 2 -83 36 -39 60 -22 71 104 66 l73 -4 -6 -36z
m1158 36 c29 -24 28 -44 -4 -68 -38 -28 -73 -28 -127 0 -30 15 -41 27 -41 44
0 12 3 26 7 29 12 12 148 8 165 -5z m245 -4 c3 -9 -2 -32 -11 -51 -17 -35 -17
-35 -71 -31 -64 5 -95 28 -95 70 l0 28 85 0 c69 0 87 -3 92 -16z m197 -10 c9
-8 16 -19 16 -24 0 -13 -34 -49 -50 -52 -8 -2 -20 -10 -26 -17 -10 -13 -19 -8
-58 30 -68 66 -62 76 46 78 39 1 61 -4 72 -15z m384 -29 c2 -36 -1 -42 -28
-57 -29 -16 -32 -16 -50 0 -11 9 -20 21 -20 26 0 5 -8 18 -17 29 -17 18 -17
20 2 33 12 9 37 14 65 12 45 -3 45 -3 48 -43z m-6178 -24 c0 -5 -9 -7 -20 -4
-11 3 -20 7 -20 9 0 2 9 4 20 4 11 0 20 -4 20 -9z m1998 -41 c27 -36 28 -65 2
-108 -27 -45 -57 -56 -107 -43 -45 12 -48 17 -58 82 l-7 44 42 1 c31 1 49 8
68 28 15 14 29 26 32 26 4 0 16 -13 28 -30z m-999 -16 c63 -31 74 -81 28 -124
-25 -24 -67 -26 -107 -5 -27 14 -30 21 -30 62 0 77 40 101 109 67z m458 -49
c48 -3 48 -4 45 -37 -5 -42 -11 -48 -53 -50 -56 -2 -79 16 -79 62 0 21 -3 47
-7 57 -5 15 -2 14 20 -6 18 -16 40 -24 74 -26z m2705 30 c31 -13 43 -100 16
-116 -22 -14 -102 -10 -126 7 -12 8 -22 24 -22 36 0 19 2 19 23 6 25 -17 47
-13 47 8 0 8 -2 14 -4 14 -2 0 -12 3 -22 7 -12 5 -15 3 -9 -6 6 -10 3 -11 -14
-2 -25 14 -28 23 -3 14 14 -5 15 -3 5 8 -27 28 -15 39 40 35 28 -2 60 -7 69
-11z m-4152 -28 c0 -38 -15 -57 -45 -57 -27 0 -45 18 -45 45 0 30 19 45 57 45
31 0 33 -2 33 -33z m495 8 c27 -26 33 -73 13 -93 -20 -20 -102 -15 -132 9 -30
23 -33 49 -10 84 23 35 94 36 129 0z m685 -3 c20 -5 45 -6 57 -1 17 6 22 3 27
-14 17 -62 -2 -87 -67 -87 -42 0 -66 31 -75 94 -4 34 -3 39 9 30 8 -7 30 -16
49 -22z m2220 9 c15 -28 12 -52 -7 -74 -14 -16 -15 -19 -3 -15 8 2 22 27 31
54 l16 49 7 -38 c6 -31 3 -43 -16 -67 -28 -35 -57 -38 -87 -6 -22 24 -22 54 1
99 12 23 45 22 58 -2z m495 -22 c10 -43 -17 -79 -57 -79 -40 0 -68 25 -68 61
0 31 9 39 54 49 46 9 64 1 71 -31z m725 -18 c0 -67 -15 -91 -59 -91 -39 0 -51
17 -51 72 0 46 2 50 33 63 17 8 42 14 55 15 20 0 22 -4 22 -59z m225 39 c23
-19 19 -66 -7 -84 -25 -18 -98 -22 -98 -6 0 6 3 9 8 9 18 -3 32 2 46 17 22 21
21 54 -2 54 -10 0 -24 6 -31 13 -7 6 -12 8 -11 2 2 -5 2 -17 1 -25 -1 -12 -4
-12 -12 3 -5 9 -7 22 -3 28 8 14 88 6 109 -11z m412 -1 c24 -2 48 3 58 11 23
19 35 -1 35 -57 0 -32 -5 -45 -19 -53 -31 -16 -83 -12 -119 10 -28 17 -32 25
-31 58 3 46 8 56 23 43 6 -5 30 -11 53 -12z m-2844 -6 c4 -2 7 -26 7 -53 0
-34 -4 -50 -16 -54 -37 -14 -64 28 -64 101 0 22 3 24 33 18 17 -4 35 -9 40
-12z m307 -13 c10 -40 0 -65 -30 -83 -32 -19 -81 -14 -103 12 -8 9 -18 35 -22
59 l-7 43 78 -3 c74 -3 78 -4 84 -28z m946 13 c20 -27 17 -60 -8 -83 -58 -54
-135 23 -78 80 25 25 68 26 86 3z m1432 5 c7 -7 12 -29 12 -50 0 -28 -5 -40
-21 -49 -25 -13 -93 -6 -114 11 -15 12 -21 81 -8 93 11 12 118 8 131 -5z m430
0 c6 -1 12 -6 12 -12 0 -5 7 -1 15 10 13 17 14 14 15 -39 0 -51 -2 -58 -24
-66 -26 -11 -89 0 -111 19 -9 8 -15 30 -15 56 l0 43 48 -5 c26 -3 53 -5 60 -6z
m215 -3 c19 -8 37 -22 41 -31 10 -26 -20 -62 -64 -75 -36 -11 -42 -10 -55 7
-15 20 -20 64 -7 64 5 0 13 -12 19 -27 11 -28 11 -28 12 10 1 34 -1 38 -19 32
-14 -4 -20 -2 -20 9 0 8 12 16 28 19 15 2 28 5 28 6 1 0 17 -6 37 -14z m239 0
c11 -15 10 -93 -1 -100 -16 -9 -91 7 -111 24 -10 9 -21 28 -24 43 -6 27 -6 28
39 25 28 -2 50 2 57 10 11 14 29 13 40 -2z m176 -1 c40 -28 23 -104 -24 -104
-45 0 -64 17 -64 58 0 60 39 81 88 46z m217 -4 c13 -41 -16 -103 -63 -132 -27
-17 -36 -18 -42 -8 -11 18 -24 129 -16 137 6 6 67 20 98 22 9 0 20 -8 23 -19z
m-3135 -29 c0 -51 -26 -71 -94 -71 -60 0 -86 20 -86 66 0 39 7 41 108 43 l72
1 0 -39z m1549 -7 c-17 -21 -38 -17 -32 5 3 13 11 17 24 14 15 -4 17 -8 8 -19z
m1268 -31 c-3 -10 -5 -2 -5 17 0 19 2 27 5 18 2 -10 2 -26 0 -35z m-2592 -160
c-8 -35 -50 -73 -79 -73 -25 0 -76 50 -76 75 0 20 40 45 70 45 39 0 70 34 71
78 1 26 4 16 11 -32 5 -38 7 -80 3 -93z m-3481 66 c13 -37 1 -71 -36 -108 -37
-36 -63 -43 -30 -8 26 27 27 40 7 57 -8 7 -15 17 -15 23 0 5 8 3 18 -6 27 -25
42 -21 42 12 0 39 -16 48 -42 24 -14 -12 -19 -13 -13 -3 26 48 54 51 69 9z
m6626 8 c0 -57 -56 -167 -86 -167 -22 0 -44 30 -44 60 0 22 9 36 36 57 20 15
46 38 57 51 26 28 37 28 37 -1z m-4882 -15 c13 -17 16 -60 6 -87 -9 -22 -57
-45 -94 -45 -43 0 -93 49 -88 87 6 58 139 91 176 45z m-230 -9 c13 -19 16 -71
4 -90 -14 -23 -63 -34 -96 -23 -50 16 -85 92 -53 118 30 24 125 21 145 -5z
m446 18 c3 -5 -5 -24 -17 -42 -29 -43 -67 -47 -81 -8 -15 44 -2 59 48 59 25 0
47 -4 50 -9z m776 -48 c0 -84 -47 -106 -113 -52 -27 22 -37 38 -37 60 0 16 3
29 8 30 4 0 31 2 60 3 29 2 55 6 59 9 13 14 23 -7 23 -50z m957 11 c-5 -50
-34 -97 -61 -102 -27 -6 -56 27 -55 62 l0 31 16 -22 c27 -39 43 -29 43 27 0
49 0 50 31 50 32 0 32 0 26 -46z m237 24 c20 -29 20 -77 0 -106 -11 -17 -25
-22 -57 -22 -53 0 -97 39 -97 84 0 52 10 59 89 64 42 2 52 -1 65 -20z m890 1
c5 -4 2 -19 -8 -33 -13 -21 -14 -26 -2 -26 16 0 26 21 26 57 0 18 5 24 18 21
12 -2 18 -14 20 -39 4 -43 -22 -70 -69 -72 -28 -2 -35 3 -43 26 -9 25 -7 31
14 49 l25 20 -27 -5 c-28 -4 -39 7 -15 16 14 6 48 -2 61 -14z m980 -1 c20 -77
-9 -128 -74 -128 -57 0 -69 8 -81 52 -13 49 -7 57 30 35 39 -23 44 -21 25 8
-10 15 -26 25 -40 25 -44 0 -25 19 24 23 109 8 109 8 116 -15z m216 -10 c32
-52 23 -90 -27 -116 -51 -28 -138 28 -131 84 4 34 53 64 106 64 26 0 36 -7 52
-32z m174 10 c23 -33 20 -75 -9 -103 -32 -33 -77 -33 -99 0 -22 33 -20 48 4
40 15 -5 20 -2 20 14 0 11 -8 24 -17 30 -28 15 2 41 48 41 28 0 42 -6 53 -22z
m-5666 0 c18 -18 15 -88 -5 -110 -9 -10 -29 -18 -44 -18 -89 0 -154 84 -97
124 27 19 128 22 146 4z m308 -25 c11 -58 -18 -85 -104 -99 -38 -6 -42 -5 -42
14 0 11 6 23 13 26 6 3 0 4 -14 1 -30 -5 -39 8 -39 55 0 35 7 38 102 39 l77 1
7 -37z m228 21 c8 -22 7 -77 -2 -90 -12 -18 -49 -34 -81 -34 -36 0 -91 43 -91
72 0 17 5 19 33 14 32 -6 32 -6 5 5 -17 6 -28 18 -28 30 0 17 8 19 79 19 63 0
80 -3 85 -16z m240 -32 c0 -30 -8 -50 -25 -68 -21 -22 -30 -25 -71 -21 -56 5
-98 30 -98 57 0 15 7 20 28 21 26 0 26 1 5 9 -25 10 -26 11 -17 35 5 13 21 15
93 13 l86 -3 -1 -43z m1956 29 c32 -60 -11 -121 -85 -121 -51 0 -99 20 -109
45 -3 9 -6 32 -6 50 0 40 6 42 112 44 67 1 79 -2 88 -18z m940 9 c23 -12 35
-62 21 -89 -25 -46 -133 -52 -177 -10 -35 32 -31 88 6 102 25 9 130 8 150 -3z
m936 -14 c3 -13 4 -37 2 -52 -3 -27 -7 -29 -61 -36 -49 -6 -60 -5 -77 12 -55
55 -42 87 35 93 28 2 60 4 72 5 16 1 24 -5 29 -22z m242 -30 c2 -27 -1 -53 -6
-58 -4 -4 -32 -11 -60 -14 -85 -9 -133 41 -106 111 5 13 20 15 88 13 l81 -3 3
-49z m221 17 c24 -92 24 -90 -1 -97 -13 -3 -47 -6 -76 -6 -46 0 -58 4 -83 29
-29 30 -39 71 -16 71 6 -1 23 -7 37 -15 14 -8 34 -14 45 -14 16 1 14 2 -6 8
-52 17 -71 31 -58 47 8 10 33 14 80 14 l68 0 10 -37z m801 23 c0 -7 -19 -38
-42 -69 -42 -55 -73 -71 -84 -43 -6 15 42 73 53 63 3 -4 17 9 30 28 24 36 43
45 43 21z m-4404 -21 c-17 -67 -47 -102 -103 -119 -19 -6 -23 -4 -23 13 0 12
6 21 13 21 15 0 69 55 86 88 16 30 35 29 27 -3z m-1738 -39 c8 -62 -49 -76
-75 -20 -17 36 -17 36 6 55 21 17 26 18 45 6 12 -8 22 -26 24 -41z m4376 -7
c-29 -31 -71 -38 -92 -17 -20 20 -14 26 42 42 30 9 58 22 63 29 5 8 9 7 11 -6
2 -11 -8 -32 -24 -48z m-2446 16 c7 -14 12 -44 12 -66 0 -33 -6 -47 -31 -70
-17 -16 -41 -29 -53 -29 -19 0 -19 2 7 18 38 25 56 52 57 83 0 36 -22 62 -53
62 -50 0 -27 25 24 26 18 1 29 -6 37 -24z m241 -31 c41 -43 43 -48 38 -90 -6
-53 -30 -94 -57 -94 -26 0 -90 57 -90 81 0 27 40 40 82 28 18 -5 34 -9 35 -9
2 0 3 9 3 19 0 18 -83 101 -101 101 -5 0 -9 5 -9 11 0 24 57 -3 99 -47z
m-2449 -99 c-33 -34 -60 -45 -60 -26 0 11 83 71 89 65 3 -2 -11 -20 -29 -39z
m6420 34 c0 -16 -56 -69 -74 -69 -29 0 -18 23 28 58 32 24 46 28 46 11z
m-1521 -18 c13 -24 -4 -78 -28 -91 -52 -27 -130 43 -88 79 11 9 65 25 99 30 4
1 12 -8 17 -18z m1751 10 c0 -20 -68 -81 -91 -81 -21 0 -20 4 21 44 43 42 70
56 70 37z m-4650 -19 c0 -37 -66 -70 -102 -51 -25 13 -23 32 3 24 31 -10 66 2
72 25 6 25 27 26 27 2z m2647 -3 c-30 -23 -28 -39 6 -39 15 0 18 -3 10 -11 -8
-8 -18 -6 -37 7 -32 20 -30 46 4 55 42 12 46 9 17 -12z m-3847 -16 c-9 -4 -1
-11 25 -19 38 -12 35 -12 -54 -11 -59 1 -96 6 -98 13 -2 7 15 12 48 13 29 0
54 3 57 6 3 3 12 5 21 4 14 0 14 -1 1 -6z m2131 -20 c13 -16 12 -17 -3 -4 -17
13 -22 21 -14 21 2 0 10 -8 17 -17z m-1671 -3 c-20 -13 -33 -13 -25 0 3 6 14
10 23 10 15 0 15 -2 2 -10z m245 0 c-3 -5 -17 -10 -31 -10 -14 0 -22 4 -19 10
3 6 17 10 31 10 14 0 22 -4 19 -10z m230 -1 c-8 -11 -42 -12 -49 -1 -3 5 8 9
25 10 16 0 27 -4 24 -9z m990 1 c-3 -5 -15 -10 -26 -10 -10 0 -19 5 -19 10 0
6 12 10 26 10 14 0 23 -4 19 -10z m936 -5 c-1 -15 -24 -12 -29 3 -3 9 2 13 12
10 10 -1 17 -7 17 -13z m524 6 c3 -6 -16 -10 -45 -9 -27 0 -50 4 -50 9 0 12
87 12 95 0z m1825 -1 c0 -5 -9 -10 -20 -10 -11 0 -20 5 -20 10 0 6 9 10 20 10
11 0 20 -4 20 -10z m-5490 -14 c-6 -6 -21 -5 -42 1 l-33 11 42 -1 c27 -1 39
-5 33 -11z m548 7 c-16 -2 -40 -2 -55 0 -16 2 -3 4 27 4 30 0 43 -2 28 -4z
m2109 1 c-3 -3 -12 -4 -19 -1 -8 3 -5 6 6 6 11 1 17 -2 13 -5z m83 2 c0 -9
-40 -13 -46 -5 -3 5 6 9 20 9 14 0 26 -2 26 -4z m175 -11 c-16 -7 -32 -11 -35
-9 -7 8 24 24 45 23 15 0 13 -4 -10 -14z m493 8 c-10 -2 -28 -2 -40 0 -13 2
-5 4 17 4 22 1 32 -1 23 -4z m1345 0 c-46 -2 -120 -2 -165 0 -46 1 -9 3 82 3
91 0 128 -2 83 -3z m-1844 -182 c-19 -21 -37 -37 -42 -34 -5 3 8 23 29 44 48
49 57 43 13 -10z m1698 27 c31 -29 30 -77 -2 -112 -33 -35 -63 -31 -92 13 -28
42 -29 61 -2 95 25 32 64 34 96 4z m-5097 -18 c6 -12 10 -37 8 -58 -2 -30 -8
-38 -30 -46 -23 -8 -32 -6 -53 14 -14 13 -25 34 -25 47 0 52 77 85 100 43z
m520 -31 c0 -14 -7 -19 -25 -19 -18 0 -25 5 -25 19 0 11 8 21 18 24 24 5 32
-1 32 -24z m-112 -1 c-2 -13 -10 -23 -18 -23 -8 0 -16 10 -18 23 -3 17 2 22
18 22 16 0 21 -5 18 -22z m423 -11 c-16 -16 -26 0 -10 19 9 11 15 12 17 4 2
-6 -1 -17 -7 -23z m4923 24 c10 -16 -5 -41 -25 -41 -19 0 -27 29 -12 43 9 10
31 9 37 -2z m216 -6 c0 -8 -7 -15 -15 -15 -9 0 -12 6 -9 15 4 8 10 15 15 15 5
0 9 -7 9 -15z m624 -1 c34 -33 5 -94 -44 -94 -47 0 -62 54 -28 98 14 17 53 15
72 -4z m-5370 -13 c21 -24 14 -88 -13 -122 l-17 -21 -24 20 -25 20 28 -5 c35
-7 34 4 -3 47 -28 34 -37 60 -23 73 13 14 61 6 77 -12z m166 9 c0 -5 -5 -10
-11 -10 -5 0 -7 5 -4 10 3 6 8 10 11 10 2 0 4 -4 4 -10z m290 -6 c0 -8 -4 -12
-10 -9 -5 3 -10 10 -10 16 0 5 5 9 10 9 6 0 10 -7 10 -16z m292 -10 c10 -21 9
-31 -3 -52 -8 -15 -23 -28 -32 -30 -26 -5 -67 25 -67 50 0 56 80 81 102 32z
m1678 22 c0 -3 -4 -8 -10 -11 -5 -3 -10 -1 -10 4 0 6 5 11 10 11 6 0 10 -2 10
-4z m969 -22 c12 -15 21 -35 21 -45 0 -19 -28 -39 -54 -39 -17 0 -56 34 -56
49 0 15 41 61 55 61 7 0 23 -12 34 -26z m235 -6 c7 -18 6 -35 -2 -53 -24 -52
-115 -22 -95 32 20 58 80 71 97 21z m376 22 c0 -5 -4 -10 -10 -10 -5 0 -10 5
-10 10 0 6 5 10 10 10 6 0 10 -4 10 -10z m-1072 -12 c21 -21 15 -68 -10 -77
-29 -10 -63 -3 -83 19 -35 38 56 95 93 58z m1582 -62 c0 -15 -18 -31 -26 -23
-7 7 7 37 17 37 5 0 9 -6 9 -14z m-5760 -186 c38 -38 16 -100 -35 -100 -26 0
-55 33 -55 62 0 22 34 58 55 58 8 0 24 -9 35 -20z m1974 -11 c30 -35 30 -39
14 -73 -15 -33 -36 -39 -84 -24 -27 9 -41 21 -48 40 -8 24 -6 32 19 58 37 38
66 38 99 -1z m2888 14 c25 -22 24 -79 -1 -93 -11 -5 -30 -10 -42 -10 -17 0
-20 4 -15 23 3 12 6 29 6 37 1 8 6 2 13 -13 11 -25 14 -27 31 -14 15 11 17 17
7 35 -6 11 -20 24 -31 27 -11 3 -20 11 -20 16 0 15 32 10 52 -8z m1750 0 c36
-32 12 -103 -35 -103 -26 0 -57 28 -57 50 0 24 38 70 57 70 9 0 25 -7 35 -17z
m-1942 -23 c25 -60 -43 -107 -92 -63 -24 22 -23 43 5 70 33 33 72 30 87 -7z
m-2480 -75 c0 -8 -9 -15 -20 -15 -11 0 -20 7 -20 15 0 8 9 15 20 15 11 0 20
-7 20 -15z m2920 1 c0 -11 -19 -15 -25 -6 -3 5 1 10 9 10 9 0 16 -2 16 -4z
m-240 -31 c0 -8 -15 -22 -32 -31 l-33 -17 30 31 c35 37 35 37 35 17z m-4886
-201 c43 -42 -10 -109 -54 -69 -26 24 -25 50 2 69 28 20 33 20 52 0z m2954
-20 c-4 -24 -24 -29 -32 -8 -8 20 13 49 27 35 5 -5 7 -17 5 -27z m1251 14 c12
-31 -4 -58 -34 -58 -21 0 -25 5 -25 30 0 17 7 33 18 39 25 15 32 13 41 -11z
m-2219 -7 c13 -25 5 -45 -24 -61 -19 -9 -27 -9 -45 1 -25 16 -27 36 -4 61 21
24 60 23 73 -1z m240 -7 c0 -33 -33 -30 -38 4 -3 17 2 22 17 22 16 0 21 -6 21
-26z m2640 11 c26 -31 -13 -82 -44 -56 -16 14 -22 52 -9 64 11 12 40 8 53 -8z
m925 -6 c9 -28 -9 -46 -30 -29 -8 7 -15 21 -15 31 0 26 37 25 45 -2z m-4552 4
c-15 -6 -17 -53 -3 -53 6 0 15 10 20 23 6 15 9 17 9 6 1 -9 -6 -22 -15 -29
-12 -11 -18 -11 -31 2 -19 19 -9 58 15 57 11 0 12 -3 5 -6z m5393 -39 c-4 -9
-9 -15 -11 -12 -3 3 -3 13 1 22 4 9 9 15 11 12 3 -3 3 -13 -1 -22z m-31 -4
c-3 -5 -11 -10 -16 -10 -6 0 -7 5 -4 10 3 6 11 10 16 10 6 0 7 -4 4 -10z
m-2425 -240 c0 -5 -5 -10 -11 -10 -5 0 -7 5 -4 10 3 6 8 10 11 10 2 0 4 -4 4
-10z m-5796 -2536 l28 -27 -7 -100 c-4 -55 -3 -98 1 -95 47 21 84 43 84 50 0
4 -9 12 -19 17 -18 10 -46 69 -37 78 7 7 70 -28 83 -46 34 -44 5 -109 -66
-145 -28 -15 -38 -16 -62 -5 -17 6 -34 20 -39 30 -12 21 -14 269 -2 269 4 0
20 -12 36 -26z"/>
<path d="M3066 7521 c-24 -26 -13 -63 17 -59 18 2 22 10 22 37 0 41 -15 49
-39 22z"/>
<path d="M5944 7516 c-8 -32 2 -46 32 -46 29 0 40 21 24 49 -15 29 -48 27 -56
-3z"/>
<path d="M3773 7518 c-6 -7 -13 -23 -16 -36 -5 -20 -2 -23 21 -20 18 2 28 10
30 24 4 27 -21 50 -35 32z"/>
<path d="M5948 7220 c-14 -11 -28 -29 -31 -40 -4 -17 0 -20 27 -20 37 0 66 26
66 58 0 28 -28 29 -62 2z"/>
<path d="M1810 7225 c-19 -21 -22 -29 -14 -43 6 -9 22 -17 35 -17 21 0 24 5
27 43 4 50 -12 55 -48 17z"/>
<path d="M3753 7219 c-28 -28 14 -68 57 -54 26 8 25 30 -2 49 -26 19 -40 20
-55 5z"/>
<path d="M8397 7209 c-11 -43 17 -65 43 -34 16 19 3 55 -20 55 -10 0 -20 -9
-23 -21z"/>
<path d="M1775 6940 c-17 -32 -20 -70 -6 -70 5 0 25 7 45 15 44 19 46 11 5
-25 -33 -28 -32 -50 1 -50 26 0 40 29 40 84 0 62 -7 76 -41 76 -21 0 -32 -7
-44 -30z"/>
<path d="M3034 6924 c-7 -28 9 -46 32 -37 31 12 25 63 -7 63 -12 0 -21 -10
-25 -26z"/>
<path d="M4767 6872 c-15 -9 -27 -20 -27 -24 0 -9 58 11 65 22 11 17 -11 18
-38 2z"/>
<path d="M5460 6860 c0 -5 14 -10 30 -10 17 0 30 5 30 10 0 6 -13 10 -30 10
-16 0 -30 -4 -30 -10z"/>
<path d="M8180 6834 c-12 -30 -6 -44 20 -44 25 0 33 15 26 46 -8 32 -34 31
-46 -2z"/>
<path d="M8401 6750 c1 -30 5 -68 9 -85 6 -23 8 -13 9 40 0 39 -4 77 -9 85 -7
11 -9 -1 -9 -40z"/>
<path d="M6410 6840 c0 -5 7 -10 15 -10 8 0 15 5 15 10 0 6 -7 10 -15 10 -8 0
-15 -4 -15 -10z"/>
<path d="M2570 6180 c0 -5 5 -10 11 -10 5 0 7 5 4 10 -3 6 -8 10 -11 10 -2 0
-4 -4 -4 -10z"/>
<path d="M2276 6661 c-23 -25 -6 -64 26 -59 29 4 46 33 32 56 -16 24 -37 26
-58 3z"/>
<path d="M4524 6455 c0 -60 1 -84 3 -52 2 32 2 81 0 110 -2 29 -3 3 -3 -58z"/>
<path d="M5237 6653 c-12 -11 -8 -41 7 -46 17 -7 36 11 36 35 0 18 -29 25 -43
11z"/>
<path d="M3037 6632 c-26 -29 -22 -60 10 -68 41 -11 71 44 41 74 -17 17 -32
15 -51 -6z"/>
<path d="M1790 6456 c0 -8 5 -27 10 -41 14 -38 54 -31 58 9 2 16 -2 32 -10 37
-21 14 -58 10 -58 -5z"/>
<path d="M3993 6483 c-16 -6 -17 -65 -1 -81 7 -7 22 -12 35 -12 26 0 39 34 29
75 -6 24 -31 32 -63 18z"/>
<path d="M5530 6512 c0 -5 7 -16 16 -23 14 -12 16 -11 13 5 -4 20 -29 35 -29
18z"/>
<path d="M5043 6452 c1 -14 5 -18 11 -12 7 7 6 14 -1 21 -9 9 -12 7 -10 -9z"/>
<path d="M5011 6436 c-16 -19 -11 -29 8 -17 7 5 12 14 9 21 -3 9 -8 7 -17 -4z"/>
<path d="M5700 6445 c0 -28 24 -34 34 -9 10 26 7 34 -14 34 -15 0 -20 -7 -20
-25z m23 0 c-3 -9 -8 -14 -10 -11 -3 3 -2 9 2 15 9 16 15 13 8 -4z"/>
<path d="M5933 6475 c0 -19 8 -19 33 0 18 14 18 14 -7 15 -16 0 -26 -5 -26
-15z"/>
<path d="M6011 6464 c0 -11 3 -14 6 -6 3 7 2 16 -1 19 -3 4 -6 -2 -5 -13z"/>
<path d="M7600 6450 c0 -5 7 -10 15 -10 8 0 15 5 15 10 0 6 -7 10 -15 10 -8 0
-15 -4 -15 -10z"/>
<path d="M6672 6477 c-17 -21 -23 -55 -12 -62 16 -10 40 14 40 41 0 27 -14 38
-28 21z m5 -44 c-3 -10 -5 -4 -5 12 0 17 2 24 5 18 2 -7 2 -21 0 -30z"/>
<path d="M4795 6339 c-4 -6 -5 -12 -2 -15 2 -3 7 2 10 11 7 17 1 20 -8 4z"/>
<path d="M2283 6273 c-27 -18 -29 -29 -8 -37 9 -3 24 3 35 14 37 37 17 54 -27
23z"/>
<path d="M5982 6298 c-16 -16 -15 -65 1 -71 27 -10 53 29 42 64 -7 22 -25 25
-43 7z"/>
<path d="M6627 6294 c-4 -4 -7 -20 -7 -36 0 -26 3 -29 28 -26 23 3 27 8 27 33
0 23 -5 31 -20 33 -12 2 -24 0 -28 -4z"/>
<path d="M6695 6260 c0 -21 3 -36 8 -33 10 6 9 61 -1 67 -4 2 -8 -13 -7 -34z"/>
<path d="M5001 6264 c-33 -28 -39 -55 -17 -73 14 -11 68 -12 60 0 -2 4 3 20
11 37 16 32 11 62 -10 62 -8 0 -27 -12 -44 -26z"/>
<path d="M8406 6155 c-9 -9 -16 -30 -16 -46 0 -22 5 -29 20 -29 23 0 43 32 38
62 -4 28 -22 33 -42 13z"/>
<path d="M2247 6063 c-14 -13 -7 -25 8 -13 8 6 23 9 35 5 23 -7 27 -35 5 -35
-8 0 -15 5 -15 10 0 6 -4 10 -10 10 -17 0 -11 -19 9 -30 34 -18 68 10 55 45
-6 15 -74 22 -87 8z"/>
<path d="M6652 6025 c0 -16 2 -22 5 -12 2 9 2 23 0 30 -3 6 -5 -1 -5 -18z"/>
<path d="M6652 5970 c0 -14 2 -19 5 -12 2 6 2 18 0 25 -3 6 -5 1 -5 -13z"/>
<path d="M7118 6063 c-26 -31 -29 -42 -18 -63 16 -30 67 -27 82 5 24 53 -28
99 -64 58z"/>
<path d="M5012 6035 c-25 -32 -18 -65 13 -65 44 0 71 50 43 78 -18 18 -35 15
-56 -13z"/>
<path d="M6877 5993 c-9 -8 -7 -150 2 -182 4 -14 12 -26 19 -29 9 -3 12 21 12
91 0 114 -9 145 -33 120z m20 -155 c-2 -29 -3 -8 -3 47 0 55 1 79 3 53 2 -26
2 -71 0 -100z"/>
<path d="M1800 5847 c0 -13 21 -36 48 -51 8 -5 12 0 12 13 0 14 -6 21 -20 21
-11 0 -20 7 -20 15 0 8 -4 15 -10 15 -5 0 -10 -6 -10 -13z"/>
<path d="M2270 5832 c0 -5 9 -20 19 -33 21 -26 37 -20 43 16 2 16 -3 21 -29
23 -18 2 -33 -1 -33 -6z m50 -16 c0 -11 -19 -15 -25 -6 -3 5 1 10 9 10 9 0 16
-2 16 -4z"/>
<path d="M4998 5846 c-25 -18 -23 -53 3 -61 26 -9 61 21 57 49 -4 25 -36 31
-60 12z"/>
<path d="M8412 5838 c-17 -17 -16 -68 2 -68 20 0 38 26 34 51 -4 27 -19 34
-36 17z"/>
<path d="M6653 5793 c-7 -3 -13 -18 -13 -34 0 -24 4 -29 24 -29 23 0 36 16 36
45 0 14 -28 24 -47 18z m21 -19 c3 -8 2 -12 -4 -9 -6 3 -10 10 -10 16 0 14 7
11 14 -7z"/>
<path d="M6636 5594 c-18 -17 -21 -69 -6 -79 26 -16 70 56 49 81 -15 18 -24
18 -43 -2z"/>
<path d="M5700 5391 c0 -5 7 -12 16 -15 22 -9 24 -8 18 9 -7 16 -34 21 -34 6z"/>
<path d="M5486 5373 c-11 -11 -6 -23 9 -23 8 0 15 4 15 9 0 13 -16 22 -24 14z"/>
<path d="M7525 5390 c-3 -5 3 -10 15 -10 12 0 18 5 15 10 -3 6 -10 10 -15 10
-5 0 -12 -4 -15 -10z"/>
<path d="M7553 5363 c9 -2 23 -2 30 0 6 3 -1 5 -18 5 -16 0 -22 -2 -12 -5z"/>
<path d="M7765 5391 c-7 -12 32 -34 45 -26 6 3 10 13 10 21 0 16 -45 20 -55 5z"/>
<path d="M5241 5371 c-15 -27 -14 -31 9 -31 13 0 20 7 20 19 0 28 -17 35 -29
12z"/>
<path d="M6914 5170 c0 -96 2 -136 3 -87 2 48 2 126 0 175 -1 48 -3 8 -3 -88z"/>
<path d="M3792 5398 c-18 -18 -15 -63 6 -81 33 -30 57 26 32 74 -12 22 -21 24
-38 7z"/>
<path d="M8396 5364 c-12 -31 -6 -54 13 -54 26 0 44 25 36 50 -8 24 -40 27
-49 4z"/>
<path d="M3040 5345 c0 -23 6 -38 15 -41 23 -9 46 16 43 45 -2 20 -9 27 -30
29 -26 3 -28 1 -28 -33z"/>
<path d="M2298 5259 c-25 -14 -24 -59 2 -59 22 0 44 34 36 56 -6 16 -15 17
-38 3z"/>
<path d="M5966 5228 c-15 -21 -15 -23 5 -30 33 -13 61 0 57 25 -4 31 -42 34
-62 5z"/>
<path d="M5013 5194 c-7 -3 -13 -19 -13 -35 0 -24 4 -29 24 -29 29 0 58 26 54
49 -3 16 -41 25 -65 15z"/>
<path d="M5246 5155 c-21 -21 -31 -64 -18 -77 15 -15 66 13 70 38 2 11 -6 28
-16 38 -18 16 -21 16 -36 1z"/>
<path d="M8405 5084 c-17 -17 -20 -60 -5 -69 15 -9 47 4 54 22 15 39 -21 74
-49 47z"/>
<path d="M6660 5055 c-17 -20 -8 -50 15 -50 15 0 21 8 23 33 4 35 -16 44 -38
17z"/>
<path d="M2287 5064 c-4 -4 -7 -20 -7 -36 0 -25 4 -29 23 -26 17 2 22 10 22
33 0 29 -22 45 -38 29z"/>
<path d="M6002 5060 c0 -14 2 -19 5 -12 2 6 2 18 0 25 -3 6 -5 1 -5 -13z"/>
<path d="M8172 5068 c-17 -17 -15 -42 7 -62 14 -13 24 -14 45 -7 45 18 30 81
-19 81 -12 0 -26 -5 -33 -12z"/>
<path d="M3797 4897 c-26 -20 -26 -71 0 -81 34 -13 59 58 30 83 -10 8 -18 7
-30 -2z"/>
<path d="M5021 4921 c-6 -11 -11 -31 -11 -45 0 -20 -4 -24 -17 -20 -16 5 -16
4 0 -6 42 -27 86 13 75 67 -5 25 -35 28 -47 4z"/>
<path d="M5982 4913 c-7 -3 -19 -17 -27 -33 -12 -23 -12 -30 0 -46 20 -27 49
-7 53 36 4 35 -5 50 -26 43z"/>
<path d="M3040 4895 c-14 -17 -5 -51 17 -59 33 -13 57 36 31 62 -16 16 -33 15
-48 -3z"/>
<path d="M7586 4872 c-10 -30 4 -53 28 -50 31 4 30 62 -1 66 -14 2 -23 -3 -27
-16z"/>
<path d="M2291 4827 c-15 -15 -14 -44 2 -49 21 -8 37 3 37 27 0 26 -22 39 -39
22z"/>
<path d="M6647 4833 c-11 -10 -8 -35 3 -28 6 3 10 -1 10 -10 0 -27 25 -11 28
18 3 21 -1 27 -16 27 -10 0 -22 -3 -25 -7z m30 -35 c-3 -8 -6 -5 -6 6 -1 11 2
17 5 13 3 -3 4 -12 1 -19z"/>
<path d="M4760 4488 c0 -3 3 -13 6 -22 8 -22 25 -20 18 2 -5 14 -3 14 10 -2
16 -19 16 -19 16 6 0 21 -4 26 -25 24 -14 0 -25 -4 -25 -8z"/>
<path d="M6653 4599 c-9 -9 -8 -15 2 -25 17 -17 31 -18 37 -1 12 31 -16 49
-39 26z"/>
<path d="M2297 4613 c-4 -3 -7 -22 -7 -40 0 -27 4 -34 18 -31 21 4 28 50 9 66
-8 7 -17 9 -20 5z"/>
<path d="M5685 4585 c17 -8 39 -14 50 -14 20 0 20 0 1 14 -11 8 -34 15 -50 14
l-31 -1 30 -13z"/>
<path d="M8388 4583 c7 -3 16 -2 19 1 4 3 -2 6 -13 5 -11 0 -14 -3 -6 -6z"/>
<path d="M8384 4475 c0 -30 4 -55 8 -55 14 0 28 38 28 74 0 28 -4 36 -18 36
-15 0 -18 -9 -18 -55z"/>
<path d="M3470 4370 c0 -5 5 -10 10 -10 6 0 10 5 10 10 0 6 -4 10 -10 10 -5 0
-10 -4 -10 -10z"/>
<path d="M4960 4540 c0 -9 69 -35 75 -28 2 1 -14 11 -36 20 -21 9 -39 13 -39
8z"/>
<path d="M2803 4424 c-8 -23 21 -68 46 -72 28 -4 36 21 21 58 -14 34 -56 42
-67 14z m62 -34 c3 -6 -1 -13 -10 -16 -19 -8 -30 0 -20 15 8 14 22 14 30 1z"/>
<path d="M1804 4405 c-10 -25 4 -45 30 -45 23 0 36 16 36 46 0 19 -59 19 -66
-1z"/>
<path d="M2280 4370 c0 -25 25 -36 45 -20 25 21 18 40 -15 40 -23 0 -30 -4
-30 -20z"/>
<path d="M5233 4364 c-3 -8 -1 -20 6 -27 8 -8 11 -4 11 16 0 30 -7 35 -17 11z"/>
<path d="M5700 4381 c-13 -26 -13 -31 5 -31 12 0 35 28 35 44 0 14 -30 4 -40
-13z"/>
<path d="M5471 4383 c-12 -24 2 -48 24 -40 10 4 15 15 13 29 -4 28 -24 34 -37
11z"/>
<path d="M4970 4370 c0 -5 7 -10 15 -10 8 0 15 5 15 10 0 6 -7 10 -15 10 -8 0
-15 -4 -15 -10z"/>
<path d="M5225 4170 c3 -5 8 -10 11 -10 2 0 4 5 4 10 0 6 -5 10 -11 10 -5 0
-7 -4 -4 -10z"/>
<path d="M5257 4160 c-3 -11 -1 -20 4 -20 5 0 9 9 9 20 0 11 -2 20 -4 20 -2 0
-6 -9 -9 -20z"/>
<path d="M8413 4193 c-24 -32 -31 -73 -13 -73 17 0 42 48 38 77 l-3 28 -22
-32z"/>
<path d="M3503 4203 c-7 -2 -13 -13 -13 -24 0 -23 32 -26 50 -4 20 25 -3 42
-37 28z"/>
<path d="M3283 4193 c-20 -8 -15 -23 7 -23 11 0 20 7 20 15 0 15 -6 17 -27 8z"/>
<path d="M5699 4179 c13 -11 26 -17 29 -14 8 8 -20 35 -37 35 -12 -1 -11 -5 8
-21z"/>
<path d="M7770 4192 c0 -5 9 -17 20 -27 20 -18 20 -17 20 8 0 20 -5 27 -20 27
-11 0 -20 -4 -20 -8z"/>
<path d="M2289 4199 c-11 -6 -11 -11 -2 -20 12 -12 43 -6 43 10 0 14 -25 20
-41 10z"/>
<path d="M3038 4173 c6 -2 18 -2 25 0 6 3 1 5 -13 5 -14 0 -19 -2 -12 -5z"/>
<path d="M4990 4176 c0 -2 9 -6 20 -9 11 -3 20 -1 20 4 0 5 -9 9 -20 9 -11 0
-20 -2 -20 -4z"/>
<path d="M5960 4170 c0 -5 7 -7 15 -4 8 4 15 8 15 10 0 2 -7 4 -15 4 -8 0 -15
-4 -15 -10z"/>
<path d="M7088 4163 c7 -3 16 -2 19 1 4 3 -2 6 -13 5 -11 0 -14 -3 -6 -6z"/>
<path d="M4206 4045 c-6 -18 34 -65 57 -65 18 0 37 21 37 41 0 22 -6 25 -51
34 -29 5 -38 3 -43 -10z"/>
<path d="M6648 4049 c-10 -5 -18 -19 -18 -30 0 -16 6 -20 28 -17 21 2 28 9 30
31 4 29 -10 34 -40 16z"/>
<path d="M6901 3836 c-19 -22 -10 -80 12 -84 23 -5 57 25 57 49 0 21 -26 49
-44 49 -8 0 -19 -6 -25 -14z"/>
<path d="M1812 3828 c-6 -6 -12 -25 -12 -40 0 -21 5 -28 19 -28 25 0 43 24 39
52 -3 26 -27 35 -46 16z"/>
<path d="M1835 3749 c-26 -17 -27 -19 -9 -19 12 0 27 7 34 15 19 23 9 25 -25
4z"/>
<path d="M8407 3794 c-4 -4 -7 -20 -7 -36 0 -23 4 -28 25 -28 29 0 43 25 28
49 -11 18 -35 25 -46 15z"/>
<path d="M3030 3782 c0 -10 13 -25 29 -35 26 -15 30 -15 35 -1 9 24 -12 54
-39 54 -17 0 -25 -6 -25 -18z"/>
<path d="M3774 3776 c-11 -29 0 -51 26 -51 21 0 25 5 25 30 0 24 -5 31 -23 33
-13 2 -24 -3 -28 -12z"/>
<path d="M6436 3769 c-16 -24 -12 -45 12 -54 24 -9 46 19 38 49 -8 31 -30 34
-50 5z"/>
<path d="M6657 3793 c-4 -3 -7 -19 -7 -35 0 -23 4 -28 25 -28 19 0 25 5 25 23
0 33 -26 57 -43 40z"/>
<path d="M5961 3768 c-12 -32 -3 -48 25 -48 17 0 25 7 30 24 3 14 3 30 -1 35
-11 19 -45 12 -54 -11z"/>
<path d="M1797 3533 c-4 -3 -7 -19 -7 -35 0 -23 4 -28 25 -28 19 0 25 5 25 23
0 33 -26 57 -43 40z"/>
<path d="M3748 3523 c-26 -31 -30 -44 -18 -58 33 -40 105 9 80 54 -13 26 -42
27 -62 4z"/>
<path d="M8416 3524 c-3 -9 -6 -27 -6 -41 0 -20 4 -24 23 -21 30 4 37 52 9 67
-16 8 -21 7 -26 -5z"/>
<path d="M6458 3519 c-23 -13 -23 -58 -2 -66 26 -10 49 11 49 43 0 31 -18 40
-47 23z"/>
<path d="M1784 3196 c-17 -43 25 -75 46 -36 9 16 8 25 -1 36 -15 18 -38 18
-45 0z"/>
<path d="M6003 3193 c-3 -10 -8 -21 -10 -25 -2 -5 5 -8 16 -8 16 0 21 6 21 25
0 29 -18 34 -27 8z"/>
<path d="M3774 3202 c-21 -13 -27 -52 -10 -58 22 -9 46 14 46 42 0 24 -15 30
-36 16z"/>
<path d="M6655 3190 c-7 -23 1 -40 20 -40 16 0 29 35 20 50 -10 17 -33 11 -40
-10z"/>
</g>
</svg>
